%TF.GenerationSoftware,KiCad,Pcbnew,8.0.7*%
%TF.CreationDate,2025-03-02T17:27:45+01:00*%
%TF.ProjectId,switchplate,73776974-6368-4706-9c61-74652e6b6963,v1.0.0*%
%TF.SameCoordinates,Original*%
%TF.FileFunction,Profile,NP*%
%FSLAX46Y46*%
G04 Gerber Fmt 4.6, Leading zero omitted, Abs format (unit mm)*
G04 Created by KiCad (PCBNEW 8.0.7) date 2025-03-02 17:27:45*
%MOMM*%
%LPD*%
G01*
G04 APERTURE LIST*
%TA.AperFunction,Profile*%
%ADD10C,0.150000*%
%TD*%
G04 APERTURE END LIST*
D10*
X262772957Y-56060535D02*
G75*
G02*
X265158366Y-57580262I432843J-1952565D01*
G01*
X238602499Y-129533584D02*
X235572344Y-115865440D01*
X291071634Y-77442416D02*
G75*
G02*
X288686081Y-75922721I-432934J1952616D01*
G01*
X108030622Y-117196526D02*
X121698766Y-120226681D01*
X166709649Y-115865440D02*
X163679495Y-129533584D01*
X133223017Y-65934033D02*
X118578577Y-62687438D01*
X126306220Y-115614591D02*
G75*
G02*
X128691683Y-114094914I1952580J-432909D01*
G01*
X270290756Y-96901479D02*
X256622612Y-99931633D01*
X316264029Y-128704910D02*
X313233874Y-115036766D01*
X248091432Y-133063475D02*
G75*
G02*
X249611150Y-130678026I1952568J432875D01*
G01*
X299565730Y-118066920D02*
X302595885Y-131735064D01*
X323558793Y-73825165D02*
X309890649Y-76855319D01*
X99686108Y-131735064D02*
X102716263Y-118066920D01*
X231547351Y-139291909D02*
X234577506Y-152960053D01*
X257152123Y-125421232D02*
X254121968Y-111753087D01*
X185572344Y-95464490D02*
X188602498Y-81796346D01*
X273320911Y-110569623D02*
X270290756Y-96901479D01*
X248397907Y-62832385D02*
X251428062Y-76500529D01*
X301888979Y-135476760D02*
X337035636Y-127684933D01*
X276470874Y-101677056D02*
X290139018Y-98646902D01*
X75693045Y-87493309D02*
X89361189Y-90523463D01*
X314003002Y-95404943D02*
X317033156Y-109073087D01*
X294520762Y-120721782D02*
G75*
G02*
X296906247Y-122241492I432938J-1952518D01*
G01*
X102778485Y-133957047D02*
X105375760Y-122241495D01*
X251987345Y-150636803D02*
G75*
G02*
X250467630Y-153022260I-1952545J-432897D01*
G01*
X239371626Y-109901762D02*
X253039770Y-106871607D01*
X158798015Y-128451386D02*
X161828169Y-114783242D01*
X327671146Y-92374789D02*
X314003002Y-95404943D01*
X106828615Y-99517296D02*
X93160471Y-96487141D01*
X157066498Y-136261754D02*
X154036343Y-149929898D01*
X154036343Y-149929898D02*
X167704487Y-152960053D01*
X196890996Y-80048309D02*
G75*
G02*
X196844617Y-80038603I386204J1961009D01*
G01*
X260893818Y-126128137D02*
G75*
G02*
X259374105Y-128513609I-1952618J-432863D01*
G01*
X331783499Y-110924413D02*
X318115354Y-113954567D01*
X326651170Y-71603182D02*
X338555348Y-125299462D01*
X217791847Y-100345970D02*
X220822002Y-114014115D01*
X151814361Y-153022275D02*
G75*
G02*
X150294712Y-150636818I432939J1952575D01*
G01*
X103798461Y-113185440D02*
X106828615Y-99517296D01*
X75630823Y-71603182D02*
G75*
G02*
X78016284Y-70083515I1952577J-432918D01*
G01*
X65246358Y-127684933D02*
G75*
G02*
X63726686Y-125299471I432842J1952533D01*
G01*
X294251371Y-117196526D02*
X291221216Y-103528382D01*
X249611145Y-130678004D02*
X259374105Y-128513608D01*
X302595885Y-131735064D02*
X316264029Y-128704910D01*
X245215496Y-136261754D02*
X231547351Y-139291909D01*
X269058976Y-65934033D02*
G75*
G02*
X266673510Y-64414319I-432976J1952433D01*
G01*
X234490146Y-110983960D02*
X231459991Y-97315816D01*
X156106069Y-59740008D02*
X139509036Y-56060535D01*
X184490146Y-100345970D02*
X170822002Y-97315816D01*
X111060777Y-103528382D02*
X108030622Y-117196526D01*
X140215942Y-59802230D02*
X137185787Y-73470374D01*
X269208558Y-92019999D02*
X266178404Y-78351855D01*
X196890997Y-84865341D02*
X205390997Y-84865341D01*
X266673505Y-64414320D02*
X265158428Y-57580248D01*
X231459991Y-97315816D02*
X217791847Y-100345970D01*
X167704487Y-152960053D02*
X170734642Y-139291909D01*
X262066051Y-59802230D02*
X248397907Y-62832385D01*
X209413669Y-149431456D02*
X215878149Y-161849608D01*
X119285482Y-66429134D02*
X116255327Y-80097278D01*
X153884086Y-62832385D02*
X140215942Y-59802230D01*
X90130317Y-110155285D02*
X103798461Y-113185440D01*
X128841273Y-88008912D02*
X115173129Y-84978758D01*
X312920804Y-90523463D02*
X326588948Y-87493309D01*
X165940522Y-96233618D02*
X152272377Y-93203463D01*
X169066359Y-156846951D02*
G75*
G02*
X169556974Y-157025526I-432959J-1952749D01*
G01*
X163679495Y-129533584D02*
X177347639Y-132563739D01*
X107910814Y-94635816D02*
X110940968Y-80967672D01*
X173985692Y-155385127D02*
X186403844Y-161849608D01*
X230377793Y-92434336D02*
X227347639Y-78766192D01*
X224934354Y-132563739D02*
X238602499Y-129533584D01*
X142903252Y-119294065D02*
X141388175Y-126128137D01*
X156110704Y-68959552D02*
X157625781Y-62125479D01*
X234577506Y-152960053D02*
X248245650Y-149929898D01*
X170052874Y-77683994D02*
X156384730Y-74653839D01*
X296906233Y-122241495D02*
X299503508Y-133957047D01*
X128691691Y-114094878D02*
X141383539Y-116908593D01*
X67468340Y-124592557D02*
X81136484Y-127622711D01*
X171904200Y-92434336D02*
X185572344Y-95464490D01*
X309890649Y-76855319D02*
X312920804Y-90523463D01*
X133073435Y-92019999D02*
X146741579Y-95050153D01*
X334813653Y-124592557D02*
X331783499Y-110924413D01*
X93160471Y-96487141D02*
X90130317Y-110155285D01*
X251428062Y-76500529D02*
X265096206Y-73470374D01*
X215878149Y-161849608D02*
X228296301Y-155385127D01*
X288686163Y-75922703D02*
X286088888Y-64207151D01*
X81136484Y-127622711D02*
X84166639Y-113954567D01*
X309121522Y-96487141D02*
X295453378Y-99517296D01*
X151814360Y-153022275D02*
X169066359Y-156846951D01*
X186403844Y-161849608D02*
X192868324Y-149431456D01*
X94242670Y-91605661D02*
X107910814Y-94635816D01*
X84166639Y-113954567D02*
X70498495Y-110924413D01*
X169556977Y-157025521D02*
X186118240Y-165646769D01*
X250009616Y-93203463D02*
X236341471Y-96233618D01*
X326588948Y-87493309D02*
X323558793Y-73825165D01*
X216163753Y-165646769D02*
G75*
G02*
X213466307Y-164796206I-923453J1773969D01*
G01*
X85248837Y-109073087D02*
X88278991Y-95404943D01*
X162910367Y-109901762D02*
X165940522Y-96233618D01*
X321145509Y-127622711D02*
X334813653Y-124592557D01*
X137185787Y-73470374D02*
X150853931Y-76500529D01*
X248091432Y-133063475D02*
X251987345Y-150636804D01*
X141383540Y-116908593D02*
G75*
G02*
X142903299Y-119294075I-432840J-1952607D01*
G01*
X180377793Y-118895595D02*
X166709649Y-115865440D01*
X153354576Y-88321983D02*
X167022720Y-91352138D01*
X70498495Y-110924413D02*
X67468340Y-124592557D01*
X255540414Y-95050153D02*
X269208558Y-92019999D01*
X228296301Y-155385127D02*
X221831820Y-142966976D01*
X283703416Y-62687438D02*
X269058976Y-65934033D01*
X124728921Y-106558537D02*
X111060777Y-103528382D01*
X205437376Y-80038602D02*
G75*
G02*
X205390997Y-80048308I-432576J1951302D01*
G01*
X216709649Y-95464490D02*
X230377793Y-92434336D01*
X89048119Y-115036766D02*
X86017964Y-128704910D01*
X248245650Y-149929898D02*
X245215496Y-136261754D01*
X240453824Y-114783242D02*
X243483978Y-128451386D01*
X232725016Y-157025521D02*
G75*
G02*
X233215635Y-156846955I923684J-1774579D01*
G01*
X88278991Y-95404943D02*
X74610847Y-92374789D01*
X282996511Y-66429134D02*
X269328367Y-69459288D01*
X115173129Y-84978758D02*
X112142975Y-98646902D01*
X177347639Y-132563739D02*
X180377793Y-118895595D01*
X245897263Y-74653839D02*
X232229119Y-77683994D01*
X150853931Y-76500529D02*
X153884086Y-62832385D01*
X142907888Y-128513608D02*
X152670848Y-130678004D01*
X290139018Y-98646902D02*
X287108864Y-84978758D01*
X253039770Y-106871607D02*
X250009616Y-93203463D01*
X121698766Y-120226681D02*
X124728921Y-106558537D01*
X116255327Y-80097278D02*
X129923472Y-83127432D01*
X142629226Y-113599777D02*
X145659381Y-99931633D01*
X156106068Y-59740008D02*
G75*
G02*
X157625715Y-62125464I-432968J-1952592D01*
G01*
X205437376Y-80038602D02*
X244651576Y-71345023D01*
X199366976Y-144527547D02*
G75*
G02*
X202915018Y-144527547I1774021J-923498D01*
G01*
X97272824Y-77937517D02*
X94242670Y-91605661D01*
X152272377Y-93203463D02*
X149242223Y-106871607D01*
X113595830Y-75922703D02*
G75*
G02*
X111210353Y-77442442I-1952630J432903D01*
G01*
X259378741Y-119294064D02*
G75*
G02*
X260898447Y-116908561I1952659J432864D01*
G01*
X301888979Y-135476760D02*
G75*
G02*
X299503489Y-133957051I-432979J1952460D01*
G01*
X313233874Y-115036766D02*
X299565730Y-118066920D01*
X259652767Y-113599777D02*
X273320911Y-110569623D01*
X243483978Y-128451386D02*
X257152123Y-125421232D01*
X149242223Y-106871607D02*
X162910367Y-109901762D01*
X277553072Y-106558537D02*
X280583227Y-120226681D01*
X188815759Y-164796244D02*
X199366975Y-144527547D01*
X116193105Y-64207151D02*
X113595830Y-75922703D01*
X275975773Y-115614591D02*
X277490850Y-122448663D01*
X161828169Y-114783242D02*
X148160025Y-111753087D01*
X132953626Y-69459288D02*
X119285482Y-66429134D01*
X236341471Y-96233618D02*
X239371626Y-109901762D01*
X221831820Y-142966976D02*
X209413669Y-149431456D01*
X150294648Y-150636804D02*
X154190561Y-133063475D01*
X287108864Y-84978758D02*
X273440720Y-88008912D01*
X174934354Y-78766192D02*
X171904200Y-92434336D01*
X157630417Y-71345023D02*
X196844617Y-80038602D01*
X116193105Y-64207150D02*
G75*
G02*
X118578583Y-62687412I1952595J-432850D01*
G01*
X262772957Y-56060535D02*
X246175924Y-59740008D01*
X227347639Y-78766192D02*
X213679495Y-81796346D01*
X131991236Y-96901479D02*
X128961082Y-110569623D01*
X252510260Y-81382009D02*
X255540414Y-95050153D01*
X192868324Y-149431456D02*
X180450173Y-142966976D01*
X102716263Y-118066920D02*
X89048119Y-115036766D01*
X272358522Y-83127432D02*
X286026666Y-80097278D01*
X283703417Y-62687438D02*
G75*
G02*
X286088828Y-64207164I432783J-1952662D01*
G01*
X124791143Y-122448663D02*
G75*
G02*
X122405682Y-123968331I-1952543J432863D01*
G01*
X269328367Y-69459288D02*
X272358522Y-83127432D01*
X318115354Y-113954567D02*
X321145509Y-127622711D01*
X170734642Y-139291909D02*
X157066498Y-136261754D01*
X78723200Y-73825165D02*
X75693045Y-87493309D01*
X291071634Y-77442416D02*
X324265699Y-70083469D01*
X102778485Y-133957047D02*
G75*
G02*
X100393020Y-135476733I-1952485J432747D01*
G01*
X71580693Y-106042933D02*
X85248837Y-109073087D01*
X181459991Y-114014115D02*
X184490146Y-100345970D01*
X63726645Y-125299462D02*
X75630823Y-71603182D01*
X74610847Y-92374789D02*
X71580693Y-106042933D01*
X142907888Y-128513608D02*
G75*
G02*
X141388107Y-126128122I432812J1952608D01*
G01*
X188815759Y-164796244D02*
G75*
G02*
X186118246Y-165646758I-1774059J923644D01*
G01*
X220822002Y-114014115D02*
X234490146Y-110983960D01*
X338555348Y-125299461D02*
G75*
G02*
X337035635Y-127684927I-1952648J-432839D01*
G01*
X128961082Y-110569623D02*
X142629226Y-113599777D01*
X78016294Y-70083469D02*
X111210359Y-77442416D01*
X92391344Y-76855319D02*
X78723200Y-73825165D01*
X305009169Y-77937517D02*
X291341025Y-80967672D01*
X317033156Y-109073087D02*
X330701300Y-106042933D01*
X156384730Y-74653839D02*
X153354576Y-88321983D01*
X280583227Y-120226681D02*
X294251371Y-117196526D01*
X167022720Y-91352138D02*
X170052874Y-77683994D01*
X235572344Y-115865440D02*
X221904200Y-118895595D01*
X112142975Y-98646902D02*
X125811119Y-101677056D01*
X135608488Y-64414320D02*
G75*
G02*
X133223025Y-65933998I-1952588J432920D01*
G01*
X244656212Y-62125480D02*
G75*
G02*
X246175925Y-59740011I1952588J432880D01*
G01*
X232229119Y-77683994D02*
X235259273Y-91352138D01*
X105375760Y-122241495D02*
G75*
G02*
X107761239Y-120721745I1952640J-432905D01*
G01*
X248927417Y-88321983D02*
X245897263Y-74653839D01*
X286026666Y-80097278D02*
X282996511Y-66429134D01*
X167791847Y-110983960D02*
X181459991Y-114014115D01*
X295453378Y-99517296D02*
X298483532Y-113185440D01*
X221904200Y-118895595D02*
X224934354Y-132563739D01*
X294371179Y-94635816D02*
X308039324Y-91605661D01*
X298483532Y-113185440D02*
X312151676Y-110155285D01*
X324265699Y-70083469D02*
G75*
G02*
X326651108Y-71603196I432801J-1952631D01*
G01*
X152670848Y-130678004D02*
G75*
G02*
X154190514Y-133063465I-432948J-1952596D01*
G01*
X145659381Y-99931633D02*
X131991236Y-96901479D01*
X265096206Y-73470374D02*
X262066051Y-59802230D01*
X65246357Y-127684933D02*
X100393014Y-135476760D01*
X205390997Y-84865341D02*
X205390997Y-80048309D01*
X312151676Y-110155285D02*
X309121522Y-96487141D01*
X235259273Y-91352138D02*
X248927417Y-88321983D01*
X125811119Y-101677056D02*
X128841273Y-88008912D01*
X89361189Y-90523463D02*
X92391344Y-76855319D01*
X256622612Y-99931633D02*
X259652767Y-113599777D01*
X149771733Y-81382009D02*
X136103589Y-78351855D01*
X291221216Y-103528382D02*
X277553072Y-106558537D01*
X145129870Y-125421232D02*
X158798015Y-128451386D01*
X110940968Y-80967672D02*
X97272824Y-77937517D01*
X196890996Y-80048309D02*
X196890997Y-84865341D01*
X308039324Y-91605661D02*
X305009169Y-77937517D01*
X260893818Y-126128137D02*
X259378741Y-119294065D01*
X330701300Y-106042933D02*
X327671146Y-92374789D01*
X137123565Y-57580248D02*
G75*
G02*
X139509026Y-56060581I1952535J-432852D01*
G01*
X244656212Y-62125479D02*
X246171289Y-68959552D01*
X124791143Y-122448663D02*
X126306220Y-115614591D01*
X170822002Y-97315816D02*
X167791847Y-110983960D01*
X86017964Y-128704910D02*
X99686108Y-131735064D01*
X246171289Y-68959552D02*
G75*
G02*
X244651584Y-71345059I-1952689J-432848D01*
G01*
X202915018Y-144527547D02*
X213466234Y-164796244D01*
X148160025Y-111753087D02*
X145129870Y-125421232D01*
X107761231Y-120721782D02*
X122405672Y-123968376D01*
X157630417Y-71345023D02*
G75*
G02*
X156110713Y-68959554I432783J1952523D01*
G01*
X279876321Y-123968376D02*
X294520762Y-120721782D01*
X129923472Y-83127432D02*
X132953626Y-69459288D01*
X216163753Y-165646769D02*
X232725016Y-157025521D01*
X146741579Y-95050153D02*
X149771733Y-81382009D01*
X213679495Y-81796346D02*
X216709649Y-95464490D01*
X136103589Y-78351855D02*
X133073435Y-92019999D01*
X291341025Y-80967672D02*
X294371179Y-94635816D01*
X273440720Y-88008912D02*
X276470874Y-101677056D01*
X180450173Y-142966976D02*
X173985692Y-155385127D01*
X266178404Y-78351855D02*
X252510260Y-81382009D01*
X254121968Y-111753087D02*
X240453824Y-114783242D01*
X233215634Y-156846951D02*
X250467633Y-153022275D01*
X137123565Y-57580248D02*
X135608488Y-64414320D01*
X273590302Y-114094878D02*
G75*
G02*
X275975701Y-115614607I432798J-1952622D01*
G01*
X260898454Y-116908593D02*
X273590302Y-114094878D01*
X279876321Y-123968376D02*
G75*
G02*
X277490929Y-122448645I-432821J1952576D01*
G01*
X188602498Y-81796346D02*
X174934354Y-78766192D01*
M02*
