%TF.GenerationSoftware,KiCad,Pcbnew,8.0.7*%
%TF.CreationDate,2025-03-02T16:24:29+01:00*%
%TF.ProjectId,pcb-adjusted,7063622d-6164-46a7-9573-7465642e6b69,v1.0.0*%
%TF.SameCoordinates,Original*%
%TF.FileFunction,Paste,Top*%
%TF.FilePolarity,Positive*%
%FSLAX46Y46*%
G04 Gerber Fmt 4.6, Leading zero omitted, Abs format (unit mm)*
G04 Created by KiCad (PCBNEW 8.0.7) date 2025-03-02 16:24:29*
%MOMM*%
%LPD*%
G01*
G04 APERTURE LIST*
G04 Aperture macros list*
%AMRotRect*
0 Rectangle, with rotation*
0 The origin of the aperture is its center*
0 $1 length*
0 $2 width*
0 $3 Rotation angle, in degrees counterclockwise*
0 Add horizontal line*
21,1,$1,$2,0,0,$3*%
G04 Aperture macros list end*
%ADD10RotRect,0.900000X1.200000X12.500000*%
%ADD11RotRect,0.900000X1.200000X347.500000*%
%ADD12RotRect,0.900000X1.200000X332.500000*%
%ADD13RotRect,0.900000X1.200000X27.500000*%
G04 APERTURE END LIST*
D10*
%TO.C,D22*%
X334193235Y-142041466D03*
X337415011Y-141327220D03*
%TD*%
%TO.C,D23*%
X330080878Y-123491838D03*
X333302654Y-122777592D03*
%TD*%
%TO.C,D28*%
X293630962Y-134645440D03*
X296852738Y-133931194D03*
%TD*%
D11*
%TO.C,D10*%
X145612317Y-147584290D03*
X148834091Y-148298544D03*
%TD*%
%TO.C,D3*%
X92344281Y-124507977D03*
X95566055Y-125222231D03*
%TD*%
D10*
%TO.C,D24*%
X319755959Y-164703437D03*
X322977735Y-163989191D03*
%TD*%
D11*
%TO.C,D1*%
X84119580Y-161607218D03*
X87341354Y-162321472D03*
%TD*%
%TO.C,D13*%
X161781106Y-162435900D03*
X165002880Y-163150154D03*
%TD*%
%TO.C,D17*%
X184443081Y-147998630D03*
X187664855Y-148712884D03*
%TD*%
%TO.C,D2*%
X88231926Y-143057605D03*
X91453700Y-143771859D03*
%TD*%
D10*
%TO.C,D33*%
X260644048Y-161419761D03*
X263865824Y-160705515D03*
%TD*%
D12*
%TO.C,D20*%
X189556802Y-194604151D03*
X192483934Y-196127919D03*
%TD*%
D10*
%TO.C,D27*%
X297743307Y-153195060D03*
X300965083Y-152480814D03*
%TD*%
D11*
%TO.C,D11*%
X149724672Y-129034661D03*
X152946446Y-129748915D03*
%TD*%
D10*
%TO.C,D32*%
X268588144Y-109468908D03*
X271809920Y-108754662D03*
%TD*%
%TO.C,D38*%
X233869726Y-128432860D03*
X237091502Y-127718614D03*
%TD*%
D11*
%TO.C,D12*%
X153837017Y-110485040D03*
X157058791Y-111199294D03*
%TD*%
D10*
%TO.C,D26*%
X311531251Y-127604193D03*
X314753027Y-126889947D03*
%TD*%
D11*
%TO.C,D7*%
X124681854Y-154211189D03*
X127903628Y-154925443D03*
%TD*%
%TO.C,D8*%
X128794213Y-135661570D03*
X132015987Y-136375824D03*
%TD*%
D10*
%TO.C,D37*%
X237982083Y-146982497D03*
X241203859Y-146268251D03*
%TD*%
%TO.C,D34*%
X256531701Y-142870135D03*
X259753477Y-142155889D03*
%TD*%
D11*
%TO.C,D16*%
X180330732Y-166548248D03*
X183552506Y-167262502D03*
%TD*%
%TO.C,D18*%
X188555435Y-129449000D03*
X191777209Y-130163254D03*
%TD*%
D10*
%TO.C,D21*%
X338305577Y-160591091D03*
X341527353Y-159876845D03*
%TD*%
%TO.C,D39*%
X251737578Y-185928424D03*
X254959354Y-185214178D03*
%TD*%
D11*
%TO.C,D9*%
X132906564Y-117111939D03*
X136128338Y-117826193D03*
%TD*%
%TO.C,D15*%
X170005812Y-125336645D03*
X173227586Y-126050899D03*
%TD*%
%TO.C,D4*%
X102669195Y-165719574D03*
X105890969Y-166433828D03*
%TD*%
D10*
%TO.C,D35*%
X252419358Y-124320513D03*
X255641134Y-123606267D03*
%TD*%
D13*
%TO.C,D40*%
X232368768Y-192522883D03*
X235295900Y-190999115D03*
%TD*%
D11*
%TO.C,D6*%
X110893908Y-128620323D03*
X114115682Y-129334577D03*
%TD*%
%TO.C,D19*%
X170687567Y-186944554D03*
X173909341Y-187658808D03*
%TD*%
%TO.C,D5*%
X106781544Y-147169944D03*
X110003318Y-147884198D03*
%TD*%
D10*
%TO.C,D30*%
X276812842Y-146568152D03*
X280034618Y-145853906D03*
%TD*%
D11*
%TO.C,D14*%
X165893459Y-143886271D03*
X169115233Y-144600525D03*
%TD*%
D10*
%TO.C,D25*%
X315643607Y-146153820D03*
X318865383Y-145439574D03*
%TD*%
%TO.C,D31*%
X272700491Y-128018533D03*
X275922267Y-127304287D03*
%TD*%
%TO.C,D29*%
X289518596Y-116095811D03*
X292740372Y-115381565D03*
%TD*%
%TO.C,D36*%
X242094423Y-165532108D03*
X245316199Y-164817862D03*
%TD*%
M02*
