%TF.GenerationSoftware,KiCad,Pcbnew,8.0.7*%
%TF.CreationDate,2025-03-02T16:24:29+01:00*%
%TF.ProjectId,pcb-adjusted,7063622d-6164-46a7-9573-7465642e6b69,v1.0.0*%
%TF.SameCoordinates,Original*%
%TF.FileFunction,Profile,NP*%
%FSLAX46Y46*%
G04 Gerber Fmt 4.6, Leading zero omitted, Abs format (unit mm)*
G04 Created by KiCad (PCBNEW 8.0.7) date 2025-03-02 16:24:29*
%MOMM*%
%LPD*%
G01*
G04 APERTURE LIST*
%TA.AperFunction,Profile*%
%ADD10C,0.150000*%
%TD*%
G04 APERTURE END LIST*
D10*
X143347793Y-98428983D02*
G75*
G02*
X140962323Y-99948684I-1952569J432859D01*
G01*
X302260060Y-154736440D02*
G75*
G02*
X304645515Y-156256154I432874J-1952579D01*
G01*
X276798287Y-99948695D02*
G75*
G02*
X274412855Y-98428974I-432854J1952579D01*
G01*
X205016808Y-114100668D02*
G75*
G02*
X204583920Y-114053246I27J1999741D01*
G01*
X136430994Y-148109534D02*
X149122849Y-150923249D01*
X134045531Y-149629246D02*
G75*
G02*
X136430996Y-148109526I1952597J-432879D01*
G01*
X283715080Y-149629241D02*
X285230153Y-156463325D01*
X160410143Y-164692657D02*
G75*
G02*
X161929792Y-167078118I-432897J-1952549D01*
G01*
X210654329Y-178542209D02*
X221205535Y-198810910D01*
X150642560Y-153308726D02*
X149127482Y-160142796D01*
X213176687Y-114053263D02*
G75*
G02*
X212743808Y-114100672I-432857J1952349D01*
G01*
X207106284Y-178542204D02*
G75*
G02*
X210654371Y-178542187I1774048J-923515D01*
G01*
X257350446Y-164692661D02*
X267113414Y-162528265D01*
X259726653Y-184651462D02*
G75*
G02*
X258206939Y-187036938I-1952622J-432864D01*
G01*
X252395515Y-96140131D02*
G75*
G02*
X253915211Y-93754609I1952622J432905D01*
G01*
X85755597Y-104098122D02*
X118949663Y-111457065D01*
X281329609Y-148109531D02*
G75*
G02*
X283715136Y-149629229I432927J-1952593D01*
G01*
X165369718Y-105359684D02*
X204583917Y-114053261D01*
X291442718Y-96702096D02*
G75*
G02*
X293828257Y-98221791I432920J-1952620D01*
G01*
X213176687Y-114053263D02*
X252390877Y-105359681D01*
X150647188Y-162528260D02*
X160410143Y-164692657D01*
X205016808Y-114100668D02*
X212743808Y-114100667D01*
X144862879Y-91594908D02*
G75*
G02*
X147248326Y-90075264I1952555J-432917D01*
G01*
X140962320Y-99948697D02*
X126317883Y-96702091D01*
X268637757Y-150923257D02*
X281329609Y-148109531D01*
X223903057Y-199661437D02*
X240464325Y-191040187D01*
X177296286Y-191040177D02*
X193857543Y-199661421D01*
X346294656Y-159314127D02*
G75*
G02*
X344774955Y-161699639I-1952634J-432888D01*
G01*
X123932411Y-98221811D02*
G75*
G02*
X126317883Y-96702091I1952616J-432907D01*
G01*
X196555074Y-198810905D02*
X207106277Y-178542207D01*
X158033954Y-184651459D02*
X161929865Y-167078134D01*
X298810937Y-111457070D02*
G75*
G02*
X296425466Y-109937368I-432909J1952548D01*
G01*
X110517792Y-167971706D02*
G75*
G02*
X108132330Y-169491372I-1952558J432888D01*
G01*
X83370125Y-105617838D02*
G75*
G02*
X85755598Y-104098118I1952600J-432882D01*
G01*
X196555074Y-198810905D02*
G75*
G02*
X193857525Y-199661456I-1774044J923479D01*
G01*
X309628273Y-169491423D02*
G75*
G02*
X307242833Y-167971698I-432842J1952607D01*
G01*
X332005002Y-104098122D02*
G75*
G02*
X334390536Y-105617828I432924J-1952604D01*
G01*
X72985662Y-161699591D02*
X108132320Y-169491417D01*
X71465949Y-159314124D02*
X83370125Y-105617838D01*
X72985668Y-161699586D02*
G75*
G02*
X71465973Y-159314129I432865J1952566D01*
G01*
X110517792Y-167971706D02*
X113115056Y-156256145D01*
X144862879Y-91594908D02*
X143347793Y-98428983D01*
X287615630Y-157983040D02*
X302260060Y-154736440D01*
X291442718Y-96702096D02*
X276798287Y-99948695D01*
X240464325Y-191040187D02*
G75*
G02*
X240954940Y-190861632I923407J-1773935D01*
G01*
X287615630Y-157983040D02*
G75*
G02*
X285230129Y-156463330I-432888J1952617D01*
G01*
X255830733Y-167078134D02*
X259726653Y-184651462D01*
X121335132Y-109937359D02*
G75*
G02*
X118949653Y-111457109I-1952594J432832D01*
G01*
X132530451Y-156463325D02*
X134045531Y-149629246D01*
X270512271Y-90075190D02*
G75*
G02*
X272897742Y-91594911I432853J-1952630D01*
G01*
X115500539Y-154736437D02*
X130144975Y-157983040D01*
X149122853Y-150923260D02*
G75*
G02*
X150642498Y-153308712I-432923J-1952561D01*
G01*
X268633126Y-160142779D02*
G75*
G02*
X267113429Y-162528333I-1952594J-432949D01*
G01*
X253910595Y-102974205D02*
G75*
G02*
X252390879Y-105359692I-1952558J-432913D01*
G01*
X165369718Y-105359684D02*
G75*
G02*
X163850056Y-102974229I432914J1952570D01*
G01*
X176805660Y-190861604D02*
G75*
G02*
X177296284Y-191040180I-432825J-1952420D01*
G01*
X163845377Y-93754673D02*
G75*
G02*
X165365057Y-96140119I-432841J-1952536D01*
G01*
X274412808Y-98428984D02*
X272897741Y-91594911D01*
X159553664Y-187036932D02*
G75*
G02*
X158033934Y-184651454I432869J1952601D01*
G01*
X309628273Y-169491423D02*
X344774942Y-161699582D01*
X334390470Y-105617843D02*
X346294656Y-159314121D01*
X150647188Y-162528260D02*
G75*
G02*
X149127395Y-160142777I432845J1952638D01*
G01*
X298810937Y-111457070D02*
X332005002Y-104098122D01*
X270512271Y-90075190D02*
X253915224Y-93754666D01*
X113115056Y-156256145D02*
G75*
G02*
X115500534Y-154736459I1952571J-432879D01*
G01*
X132530451Y-156463325D02*
G75*
G02*
X130144974Y-157983045I-1952612J432900D01*
G01*
X163850007Y-102974218D02*
X165365085Y-96140125D01*
X123932411Y-98221811D02*
X121335132Y-109937359D01*
X296425463Y-109937369D02*
X293828202Y-98221803D01*
X240954934Y-190861603D02*
X258206937Y-187036930D01*
X223903057Y-199661437D02*
G75*
G02*
X221205506Y-198810925I-923524J1774017D01*
G01*
X163845377Y-93754673D02*
X147248341Y-90075197D01*
X267118057Y-153308723D02*
G75*
G02*
X268637755Y-150923247I1952573J432898D01*
G01*
X255830733Y-167078134D02*
G75*
G02*
X257350434Y-164692608I1952605J432918D01*
G01*
X268633126Y-160142779D02*
X267118044Y-153308725D01*
X304645537Y-156256149D02*
X307242817Y-167971702D01*
X159553666Y-187036935D02*
X176805660Y-190861604D01*
X252395521Y-96140137D02*
X253910595Y-102974205D01*
M02*
