%TF.GenerationSoftware,KiCad,Pcbnew,8.0.7*%
%TF.CreationDate,2025-03-02T16:24:29+01:00*%
%TF.ProjectId,pcb-adjusted,7063622d-6164-46a7-9573-7465642e6b69,v1.0.0*%
%TF.SameCoordinates,Original*%
%TF.FileFunction,Copper,L1,Top*%
%TF.FilePolarity,Positive*%
%FSLAX46Y46*%
G04 Gerber Fmt 4.6, Leading zero omitted, Abs format (unit mm)*
G04 Created by KiCad (PCBNEW 8.0.7) date 2025-03-02 16:24:29*
%MOMM*%
%LPD*%
G01*
G04 APERTURE LIST*
G04 Aperture macros list*
%AMRotRect*
0 Rectangle, with rotation*
0 The origin of the aperture is its center*
0 $1 length*
0 $2 width*
0 $3 Rotation angle, in degrees counterclockwise*
0 Add horizontal line*
21,1,$1,$2,0,0,$3*%
G04 Aperture macros list end*
%TA.AperFunction,ComponentPad*%
%ADD10RotRect,1.778000X1.778000X12.500000*%
%TD*%
%TA.AperFunction,SMDPad,CuDef*%
%ADD11RotRect,0.900000X1.200000X12.500000*%
%TD*%
%TA.AperFunction,ComponentPad*%
%ADD12C,1.905000*%
%TD*%
%TA.AperFunction,ComponentPad*%
%ADD13RotRect,1.778000X1.778000X347.500000*%
%TD*%
%TA.AperFunction,SMDPad,CuDef*%
%ADD14RotRect,0.900000X1.200000X347.500000*%
%TD*%
%TA.AperFunction,ComponentPad*%
%ADD15RotRect,1.778000X1.778000X332.500000*%
%TD*%
%TA.AperFunction,SMDPad,CuDef*%
%ADD16RotRect,0.900000X1.200000X332.500000*%
%TD*%
%TA.AperFunction,ComponentPad*%
%ADD17RotRect,1.778000X1.778000X27.500000*%
%TD*%
%TA.AperFunction,SMDPad,CuDef*%
%ADD18RotRect,0.900000X1.200000X27.500000*%
%TD*%
%TA.AperFunction,ComponentPad*%
%ADD19R,1.752600X1.752600*%
%TD*%
%TA.AperFunction,ComponentPad*%
%ADD20C,1.752600*%
%TD*%
%TA.AperFunction,ViaPad*%
%ADD21C,0.800000*%
%TD*%
%TA.AperFunction,Conductor*%
%ADD22C,0.250000*%
%TD*%
G04 APERTURE END LIST*
D10*
%TO.P,D22,1*%
%TO.N,P9*%
X332084436Y-142508981D03*
D11*
X334193235Y-142041466D03*
%TO.P,D22,2*%
%TO.N,mirror_outer_home*%
X337415011Y-141327220D03*
D12*
X339523810Y-140859705D03*
%TD*%
D10*
%TO.P,D23,1*%
%TO.N,P8*%
X327972079Y-123959353D03*
D11*
X330080878Y-123491838D03*
%TO.P,D23,2*%
%TO.N,mirror_outer_top*%
X333302654Y-122777592D03*
D12*
X335411453Y-122310077D03*
%TD*%
D10*
%TO.P,D28,1*%
%TO.N,P9*%
X291522163Y-135112955D03*
D11*
X293630962Y-134645440D03*
%TO.P,D28,2*%
%TO.N,mirror_ring_home*%
X296852738Y-133931194D03*
D12*
X298961537Y-133463679D03*
%TD*%
D13*
%TO.P,D10,1*%
%TO.N,P16*%
X143503515Y-147116784D03*
D14*
X145612317Y-147584290D03*
%TO.P,D10,2*%
%TO.N,middle_bottom*%
X148834091Y-148298544D03*
D12*
X150942893Y-148766050D03*
%TD*%
D13*
%TO.P,D3,1*%
%TO.N,P8*%
X90235479Y-124040471D03*
D14*
X92344281Y-124507977D03*
%TO.P,D3,2*%
%TO.N,outer_top*%
X95566055Y-125222231D03*
D12*
X97674857Y-125689737D03*
%TD*%
D10*
%TO.P,D24,1*%
%TO.N,P16*%
X317647160Y-165170952D03*
D11*
X319755959Y-164703437D03*
%TO.P,D24,2*%
%TO.N,mirror_pinky_bottom*%
X322977735Y-163989191D03*
D12*
X325086534Y-163521676D03*
%TD*%
D13*
%TO.P,D1,1*%
%TO.N,P16*%
X82010778Y-161139712D03*
D14*
X84119580Y-161607218D03*
%TO.P,D1,2*%
%TO.N,outer_bottom*%
X87341354Y-162321472D03*
D12*
X89450156Y-162788978D03*
%TD*%
D13*
%TO.P,D13,1*%
%TO.N,P16*%
X159672304Y-161968394D03*
D14*
X161781106Y-162435900D03*
%TO.P,D13,2*%
%TO.N,index_bottom*%
X165002880Y-163150154D03*
D12*
X167111682Y-163617660D03*
%TD*%
D13*
%TO.P,D17,1*%
%TO.N,P9*%
X182334279Y-147531124D03*
D14*
X184443081Y-147998630D03*
%TO.P,D17,2*%
%TO.N,inner_home*%
X187664855Y-148712884D03*
D12*
X189773657Y-149180390D03*
%TD*%
D13*
%TO.P,D2,1*%
%TO.N,P9*%
X86123124Y-142590099D03*
D14*
X88231926Y-143057605D03*
%TO.P,D2,2*%
%TO.N,outer_home*%
X91453700Y-143771859D03*
D12*
X93562502Y-144239365D03*
%TD*%
D10*
%TO.P,D33,1*%
%TO.N,P16*%
X258535249Y-161887276D03*
D11*
X260644048Y-161419761D03*
%TO.P,D33,2*%
%TO.N,mirror_index_bottom*%
X263865824Y-160705515D03*
D12*
X265974623Y-160238000D03*
%TD*%
D15*
%TO.P,D20,1*%
%TO.N,P10*%
X187640858Y-193606774D03*
D16*
X189556802Y-194604151D03*
%TO.P,D20,2*%
%TO.N,home_thumb*%
X192483934Y-196127919D03*
D12*
X194399878Y-197125296D03*
%TD*%
D10*
%TO.P,D27,1*%
%TO.N,P16*%
X295634508Y-153662575D03*
D11*
X297743307Y-153195060D03*
%TO.P,D27,2*%
%TO.N,mirror_ring_bottom*%
X300965083Y-152480814D03*
D12*
X303073882Y-152013299D03*
%TD*%
D13*
%TO.P,D11,1*%
%TO.N,P9*%
X147615870Y-128567155D03*
D14*
X149724672Y-129034661D03*
%TO.P,D11,2*%
%TO.N,middle_home*%
X152946446Y-129748915D03*
D12*
X155055248Y-130216421D03*
%TD*%
D10*
%TO.P,D32,1*%
%TO.N,P8*%
X266479345Y-109936423D03*
D11*
X268588144Y-109468908D03*
%TO.P,D32,2*%
%TO.N,mirror_middle_top*%
X271809920Y-108754662D03*
D12*
X273918719Y-108287147D03*
%TD*%
D10*
%TO.P,D38,1*%
%TO.N,P8*%
X231760927Y-128900375D03*
D11*
X233869726Y-128432860D03*
%TO.P,D38,2*%
%TO.N,mirror_inner_top*%
X237091502Y-127718614D03*
D12*
X239200301Y-127251099D03*
%TD*%
D13*
%TO.P,D12,1*%
%TO.N,P8*%
X151728215Y-110017534D03*
D14*
X153837017Y-110485040D03*
%TO.P,D12,2*%
%TO.N,middle_top*%
X157058791Y-111199294D03*
D12*
X159167593Y-111666800D03*
%TD*%
D10*
%TO.P,D26,1*%
%TO.N,P8*%
X309422452Y-128071708D03*
D11*
X311531251Y-127604193D03*
%TO.P,D26,2*%
%TO.N,mirror_pinky_top*%
X314753027Y-126889947D03*
D12*
X316861826Y-126422432D03*
%TD*%
D13*
%TO.P,D7,1*%
%TO.N,P16*%
X122573052Y-153743683D03*
D14*
X124681854Y-154211189D03*
%TO.P,D7,2*%
%TO.N,ring_bottom*%
X127903628Y-154925443D03*
D12*
X130012430Y-155392949D03*
%TD*%
D13*
%TO.P,D8,1*%
%TO.N,P9*%
X126685411Y-135194064D03*
D14*
X128794213Y-135661570D03*
%TO.P,D8,2*%
%TO.N,ring_home*%
X132015987Y-136375824D03*
D12*
X134124789Y-136843330D03*
%TD*%
D10*
%TO.P,D37,1*%
%TO.N,P9*%
X235873284Y-147450012D03*
D11*
X237982083Y-146982497D03*
%TO.P,D37,2*%
%TO.N,mirror_inner_home*%
X241203859Y-146268251D03*
D12*
X243312658Y-145800736D03*
%TD*%
D10*
%TO.P,D34,1*%
%TO.N,P9*%
X254422902Y-143337650D03*
D11*
X256531701Y-142870135D03*
%TO.P,D34,2*%
%TO.N,mirror_index_home*%
X259753477Y-142155889D03*
D12*
X261862276Y-141688374D03*
%TD*%
D13*
%TO.P,D16,1*%
%TO.N,P16*%
X178221930Y-166080742D03*
D14*
X180330732Y-166548248D03*
%TO.P,D16,2*%
%TO.N,inner_bottom*%
X183552506Y-167262502D03*
D12*
X185661308Y-167730008D03*
%TD*%
D13*
%TO.P,D18,1*%
%TO.N,P8*%
X186446633Y-128981494D03*
D14*
X188555435Y-129449000D03*
%TO.P,D18,2*%
%TO.N,inner_top*%
X191777209Y-130163254D03*
D12*
X193886011Y-130630760D03*
%TD*%
D10*
%TO.P,D21,1*%
%TO.N,P16*%
X336196778Y-161058606D03*
D11*
X338305577Y-160591091D03*
%TO.P,D21,2*%
%TO.N,mirror_outer_bottom*%
X341527353Y-159876845D03*
D12*
X343636152Y-159409330D03*
%TD*%
D10*
%TO.P,D39,1*%
%TO.N,P10*%
X249628779Y-186395939D03*
D11*
X251737578Y-185928424D03*
%TO.P,D39,2*%
%TO.N,mirror_near_thumb*%
X254959354Y-185214178D03*
D12*
X257068153Y-184746663D03*
%TD*%
D13*
%TO.P,D9,1*%
%TO.N,P8*%
X130797762Y-116644433D03*
D14*
X132906564Y-117111939D03*
%TO.P,D9,2*%
%TO.N,ring_top*%
X136128338Y-117826193D03*
D12*
X138237140Y-118293699D03*
%TD*%
D13*
%TO.P,D15,1*%
%TO.N,P8*%
X167897010Y-124869139D03*
D14*
X170005812Y-125336645D03*
%TO.P,D15,2*%
%TO.N,index_top*%
X173227586Y-126050899D03*
D12*
X175336388Y-126518405D03*
%TD*%
D13*
%TO.P,D4,1*%
%TO.N,P16*%
X100560393Y-165252068D03*
D14*
X102669195Y-165719574D03*
%TO.P,D4,2*%
%TO.N,pinky_bottom*%
X105890969Y-166433828D03*
D12*
X107999771Y-166901334D03*
%TD*%
D10*
%TO.P,D35,1*%
%TO.N,P8*%
X250310559Y-124788028D03*
D11*
X252419358Y-124320513D03*
%TO.P,D35,2*%
%TO.N,mirror_index_top*%
X255641134Y-123606267D03*
D12*
X257749933Y-123138752D03*
%TD*%
D17*
%TO.P,D40,1*%
%TO.N,P10*%
X230452824Y-193520260D03*
D18*
X232368768Y-192522883D03*
%TO.P,D40,2*%
%TO.N,mirror_home_thumb*%
X235295900Y-190999115D03*
D12*
X237211844Y-190001738D03*
%TD*%
D13*
%TO.P,D6,1*%
%TO.N,P8*%
X108785106Y-128152817D03*
D14*
X110893908Y-128620323D03*
%TO.P,D6,2*%
%TO.N,pinky_top*%
X114115682Y-129334577D03*
D12*
X116224484Y-129802083D03*
%TD*%
D13*
%TO.P,D19,1*%
%TO.N,P10*%
X168578765Y-186477048D03*
D14*
X170687567Y-186944554D03*
%TO.P,D19,2*%
%TO.N,near_thumb*%
X173909341Y-187658808D03*
D12*
X176018143Y-188126314D03*
%TD*%
D13*
%TO.P,D5,1*%
%TO.N,P9*%
X104672742Y-146702438D03*
D14*
X106781544Y-147169944D03*
%TO.P,D5,2*%
%TO.N,pinky_home*%
X110003318Y-147884198D03*
D12*
X112112120Y-148351704D03*
%TD*%
D10*
%TO.P,D30,1*%
%TO.N,P16*%
X274704043Y-147035667D03*
D11*
X276812842Y-146568152D03*
%TO.P,D30,2*%
%TO.N,mirror_middle_bottom*%
X280034618Y-145853906D03*
D12*
X282143417Y-145386391D03*
%TD*%
D13*
%TO.P,D14,1*%
%TO.N,P9*%
X163784657Y-143418765D03*
D14*
X165893459Y-143886271D03*
%TO.P,D14,2*%
%TO.N,index_home*%
X169115233Y-144600525D03*
D12*
X171224035Y-145068031D03*
%TD*%
D10*
%TO.P,D25,1*%
%TO.N,P9*%
X313534808Y-146621335D03*
D11*
X315643607Y-146153820D03*
%TO.P,D25,2*%
%TO.N,mirror_pinky_home*%
X318865383Y-145439574D03*
D12*
X320974182Y-144972059D03*
%TD*%
D10*
%TO.P,D31,1*%
%TO.N,P9*%
X270591692Y-128486048D03*
D11*
X272700491Y-128018533D03*
%TO.P,D31,2*%
%TO.N,mirror_middle_home*%
X275922267Y-127304287D03*
D12*
X278031066Y-126836772D03*
%TD*%
D10*
%TO.P,D29,1*%
%TO.N,P8*%
X287409797Y-116563326D03*
D11*
X289518596Y-116095811D03*
%TO.P,D29,2*%
%TO.N,mirror_ring_top*%
X292740372Y-115381565D03*
D12*
X294849171Y-114914050D03*
%TD*%
D10*
%TO.P,D36,1*%
%TO.N,P16*%
X239985624Y-165999623D03*
D11*
X242094423Y-165532108D03*
%TO.P,D36,2*%
%TO.N,mirror_inner_bottom*%
X245316199Y-164817862D03*
D12*
X247424998Y-164350347D03*
%TD*%
D19*
%TO.P,MCU1,1*%
%TO.N,RAW*%
X216500300Y-118659992D03*
D20*
%TO.P,MCU1,2*%
%TO.N,GND*%
X216500298Y-121199993D03*
%TO.P,MCU1,3*%
%TO.N,RST*%
X216500301Y-123739998D03*
%TO.P,MCU1,4*%
%TO.N,VCC*%
X216500300Y-126279994D03*
%TO.P,MCU1,5*%
%TO.N,P21*%
X216500301Y-128819995D03*
%TO.P,MCU1,6*%
%TO.N,P20*%
X216500302Y-131359994D03*
%TO.P,MCU1,7*%
%TO.N,P19*%
X216500300Y-133899993D03*
%TO.P,MCU1,8*%
%TO.N,P18*%
X216500300Y-136439995D03*
%TO.P,MCU1,9*%
%TO.N,P15*%
X216500300Y-138979994D03*
%TO.P,MCU1,10*%
%TO.N,P14*%
X216500300Y-141519994D03*
%TO.P,MCU1,11*%
%TO.N,P16*%
X216500300Y-144059994D03*
%TO.P,MCU1,12*%
%TO.N,P10*%
X216500301Y-146599995D03*
%TO.P,MCU1,13*%
%TO.N,P1*%
X201260299Y-118659993D03*
%TO.P,MCU1,14*%
%TO.N,P0*%
X201260300Y-121199994D03*
%TO.P,MCU1,15*%
%TO.N,GND*%
X201260300Y-123739994D03*
%TO.P,MCU1,16*%
X201260300Y-126279994D03*
%TO.P,MCU1,17*%
%TO.N,P2*%
X201260300Y-128819993D03*
%TO.P,MCU1,18*%
%TO.N,P3*%
X201260300Y-131359995D03*
%TO.P,MCU1,19*%
%TO.N,P4*%
X201260298Y-133899994D03*
%TO.P,MCU1,20*%
%TO.N,P5*%
X201260299Y-136439993D03*
%TO.P,MCU1,21*%
%TO.N,P6*%
X201260300Y-138979994D03*
%TO.P,MCU1,22*%
%TO.N,P7*%
X201260299Y-141519990D03*
%TO.P,MCU1,23*%
%TO.N,P8*%
X201260302Y-144059995D03*
%TO.P,MCU1,24*%
%TO.N,P9*%
X201260300Y-146599996D03*
%TD*%
D21*
%TO.N,P9*%
X220396954Y-148796945D03*
%TO.N,P8*%
X220395758Y-143946365D03*
%TD*%
D22*
%TO.N,P16*%
X152712872Y-151044260D02*
X159672303Y-161968379D01*
X144902488Y-149312740D02*
X152712872Y-151044260D01*
X143503509Y-147116784D02*
X144902488Y-149312740D01*
X241509344Y-166970338D02*
X239985628Y-165999621D01*
X257564538Y-163410985D02*
X241509344Y-166970338D01*
X258535247Y-161887285D02*
X257564538Y-163410985D01*
X266893672Y-148767182D02*
X258535247Y-161887285D01*
X274704040Y-147035670D02*
X266893672Y-148767182D01*
X284498863Y-146568391D02*
X276688494Y-148299905D01*
X276688494Y-148299905D02*
X274704040Y-147035670D01*
X295634511Y-153662579D02*
X284498863Y-146568391D01*
X297584267Y-154904707D02*
X295634511Y-153662579D01*
X317647167Y-165170948D02*
X305882808Y-157676228D01*
X319170872Y-166141658D02*
X317647167Y-165170948D01*
X305882808Y-157676228D02*
X305276352Y-154940687D01*
X335226073Y-162582312D02*
X319170872Y-166141658D01*
X305276352Y-154940687D02*
X303248701Y-153648931D01*
X303248701Y-153648931D02*
X297584267Y-154904707D01*
X336196781Y-161058595D02*
X335226073Y-162582312D01*
X179192640Y-167604457D02*
X178221928Y-166080739D01*
X186663793Y-169260772D02*
X179192640Y-167604457D01*
X194263794Y-156749980D02*
X194263791Y-161660768D01*
X194263791Y-161660768D02*
X186663793Y-169260772D01*
X201863791Y-149149981D02*
X194263794Y-156749980D01*
X211410312Y-149149984D02*
X201863791Y-149149981D01*
X216500298Y-144059994D02*
X211410312Y-149149984D01*
%TO.N,P8*%
X221850280Y-131097514D02*
X220556436Y-133128446D01*
X231760925Y-128900379D02*
X221850280Y-131097514D01*
X220556434Y-134677552D02*
X220556436Y-133128446D01*
%TO.N,P9*%
X235740621Y-147479420D02*
X235873284Y-147450007D01*
X233313786Y-145933352D02*
X235740621Y-147479420D01*
X220396954Y-148796945D02*
X233313786Y-145933352D01*
%TO.N,P10*%
X216500301Y-153325277D02*
X216500298Y-146599995D01*
X232486147Y-169311125D02*
X216500301Y-153325277D01*
X251771463Y-166411639D02*
X240562979Y-168896506D01*
X240562979Y-168896506D02*
X238960716Y-167875752D01*
X255014966Y-168477979D02*
X251771463Y-166411639D01*
X257695842Y-180570645D02*
X255014966Y-168477979D01*
X238960716Y-167875752D02*
X232486147Y-169311125D01*
X255714998Y-183679945D02*
X257695842Y-180570645D01*
X249628779Y-186395936D02*
X250642662Y-184804453D01*
X250642662Y-184804453D02*
X255714998Y-183679945D01*
%TO.N,P16*%
X120587656Y-155008522D02*
X135693155Y-145385261D01*
X112672479Y-155097476D02*
X114819399Y-153729728D01*
X112043005Y-157936836D02*
X112672479Y-155097476D01*
X114819399Y-153729728D02*
X120587656Y-155008522D01*
X135693155Y-145385261D02*
X143503509Y-147116784D01*
X100560401Y-165252062D02*
X112043005Y-157936836D01*
%TO.N,P10*%
X221012385Y-196163674D02*
X216499462Y-187494440D01*
%TO.N,P8*%
X220556437Y-143785692D02*
X220556434Y-134677552D01*
X220395758Y-143946365D02*
X220556437Y-143785692D01*
X233869726Y-128432872D02*
X231760923Y-128900375D01*
%TO.N,P10*%
X251737589Y-185928424D02*
X249628789Y-186395938D01*
%TO.N,P16*%
X338305582Y-160591093D02*
X336196791Y-161058595D01*
X319755961Y-164703436D02*
X317647170Y-165170937D01*
X297743304Y-153195067D02*
X295634506Y-153662571D01*
X276812837Y-146568159D02*
X274704047Y-147035665D01*
X260644051Y-161419758D02*
X258535249Y-161887269D01*
X242094430Y-165532119D02*
X239985633Y-165999618D01*
%TO.N,P10*%
X185835974Y-194192040D02*
X187630773Y-193626143D01*
X177794421Y-190005874D02*
X185835974Y-194192040D01*
X169680988Y-188207172D02*
X177794421Y-190005874D01*
X168578768Y-186477051D02*
X169680988Y-188207172D01*
X240044253Y-189968291D02*
X240043574Y-189967864D01*
X248554948Y-188081521D02*
X240044253Y-189968291D01*
X232175865Y-194063528D02*
X240043574Y-189967864D01*
X230452817Y-193520263D02*
X232175865Y-194063528D01*
%TO.N,P8*%
X258668970Y-111667940D02*
X266479339Y-109936420D01*
X250310548Y-124788024D02*
X258668970Y-111667940D01*
%TO.N,P9*%
X262781326Y-130217561D02*
X270591684Y-128486039D01*
X254422906Y-143337658D02*
X262781326Y-130217561D01*
X283711778Y-136844469D02*
X270591684Y-128486039D01*
X291522149Y-135112942D02*
X283711778Y-136844469D01*
X313534809Y-146621321D02*
X310605920Y-147270657D01*
X310605920Y-147270657D02*
X291522149Y-135112942D01*
%TO.N,P8*%
X279599434Y-118294847D02*
X266479339Y-109936420D01*
X287409793Y-116563334D02*
X279599434Y-118294847D01*
X309422453Y-128071706D02*
X306493570Y-128721026D01*
X306493570Y-128721026D02*
X287409793Y-116563334D01*
%TO.N,mirror_home_thumb*%
X235295891Y-190999120D02*
X237211833Y-190001738D01*
%TO.N,P10*%
X232368767Y-192522887D02*
X230452815Y-193520268D01*
%TO.N,mirror_near_thumb*%
X257068162Y-184746670D02*
X254959361Y-185214172D01*
%TO.N,mirror_outer_bottom*%
X341527358Y-159876843D02*
X343636166Y-159409333D01*
%TO.N,mirror_pinky_bottom*%
X322977740Y-163989194D02*
X325086537Y-163521685D01*
%TO.N,mirror_ring_bottom*%
X300965080Y-152480802D02*
X303073877Y-152013299D01*
%TO.N,mirror_middle_bottom*%
X280034624Y-145853904D02*
X282143412Y-145386394D01*
%TO.N,mirror_index_bottom*%
X263865831Y-160705526D02*
X265974630Y-160238013D01*
%TO.N,mirror_inner_bottom*%
X245316210Y-164817861D02*
X247425005Y-164350360D01*
%TO.N,P9*%
X237982080Y-146982493D02*
X235873276Y-147450000D01*
%TO.N,mirror_inner_home*%
X243312654Y-145800729D02*
X241203854Y-146268247D01*
%TO.N,P9*%
X256531704Y-142870142D02*
X254422910Y-143337648D01*
%TO.N,mirror_index_home*%
X261862287Y-141688379D02*
X259753488Y-142155884D01*
%TO.N,P9*%
X272700490Y-128018527D02*
X270591687Y-128486035D01*
%TO.N,mirror_middle_home*%
X278031070Y-126836765D02*
X275922274Y-127304284D01*
%TO.N,P9*%
X293630957Y-134645444D02*
X291522150Y-135112950D01*
%TO.N,mirror_ring_home*%
X298961525Y-133463672D02*
X296852731Y-133931187D01*
%TO.N,P9*%
X315643616Y-146153812D02*
X313534818Y-146621333D01*
%TO.N,mirror_pinky_home*%
X320974179Y-144972060D02*
X318865392Y-145439564D01*
%TO.N,P9*%
X332084433Y-142508973D02*
X334193228Y-142041464D01*
%TO.N,mirror_outer_home*%
X337415004Y-141327215D02*
X339523815Y-140859707D01*
%TO.N,mirror_outer_top*%
X333302654Y-122777602D02*
X335411460Y-122310089D01*
%TO.N,P8*%
X327972087Y-123959353D02*
X330080888Y-123491850D01*
%TO.N,mirror_pinky_top*%
X314753025Y-126889939D02*
X316861831Y-126422437D01*
%TO.N,P8*%
X309422453Y-128071706D02*
X311531252Y-127604199D01*
%TO.N,mirror_ring_top*%
X292740372Y-115381563D02*
X294849173Y-114914050D01*
%TO.N,P8*%
X287409792Y-116563321D02*
X289518591Y-116095819D01*
%TO.N,mirror_middle_top*%
X271809915Y-108754652D02*
X273918709Y-108287149D01*
%TO.N,P8*%
X266479344Y-109936417D02*
X268588136Y-109468913D01*
%TO.N,mirror_index_top*%
X255641126Y-123606263D02*
X257749925Y-123138763D01*
%TO.N,P8*%
X250310548Y-124788024D02*
X252419347Y-124320514D01*
%TO.N,mirror_inner_top*%
X237091504Y-127718626D02*
X239200297Y-127251109D01*
%TO.N,outer_bottom*%
X87341356Y-162321477D02*
X89450145Y-162788979D01*
%TO.N,outer_home*%
X91453707Y-143771848D02*
X93562499Y-144239352D01*
%TO.N,outer_top*%
X95566056Y-125222223D02*
X97674852Y-125689733D01*
%TO.N,pinky_bottom*%
X105890976Y-166433821D02*
X107999772Y-166901342D01*
%TO.N,pinky_home*%
X110003326Y-147884200D02*
X112112124Y-148351714D01*
%TO.N,pinky_top*%
X114115685Y-129334575D02*
X116224486Y-129802088D01*
%TO.N,ring_bottom*%
X127903631Y-154925450D02*
X130012436Y-155392962D01*
%TO.N,ring_home*%
X132015982Y-136375824D02*
X134124788Y-136843325D01*
%TO.N,ring_top*%
X136128337Y-117826194D02*
X136662570Y-117944631D01*
X136662570Y-117944631D02*
X136662581Y-117944625D01*
X136662581Y-117944625D02*
X138237138Y-118293705D01*
%TO.N,middle_bottom*%
X148834098Y-148298544D02*
X150942883Y-148766052D01*
%TO.N,middle_home*%
X152946439Y-129748913D02*
X155055246Y-130216432D01*
%TO.N,middle_top*%
X157058804Y-111199294D02*
X159167593Y-111666805D01*
%TO.N,index_bottom*%
X165002876Y-163150157D02*
X167111682Y-163617649D01*
%TO.N,index_home*%
X169115231Y-144600530D02*
X171224046Y-145068038D01*
%TO.N,index_top*%
X173227587Y-126050903D02*
X175336379Y-126518404D01*
%TO.N,inner_bottom*%
X183552500Y-167262498D02*
X185661307Y-167730009D01*
%TO.N,inner_home*%
X187664850Y-148712879D02*
X189773654Y-149180389D01*
%TO.N,inner_top*%
X191777206Y-130163249D02*
X193886000Y-130630750D01*
%TO.N,near_thumb*%
X173909352Y-187658819D02*
X176018142Y-188126322D01*
%TO.N,home_thumb*%
X192483936Y-196127912D02*
X194399877Y-197125284D01*
%TO.N,P16*%
X176698208Y-167051452D02*
X178221935Y-166080746D01*
X159672303Y-161968379D02*
X161781098Y-162435889D01*
X82010775Y-161139722D02*
X82981494Y-162663432D01*
X178221923Y-166080752D02*
X180330724Y-166548241D01*
X100560401Y-165252062D02*
X102669194Y-165719569D01*
X143503509Y-147116784D02*
X145612314Y-147584278D01*
X82981494Y-162663432D02*
X99036681Y-166222779D01*
X159672303Y-161968379D02*
X160643014Y-163492104D01*
X160643014Y-163492104D02*
X176698208Y-167051452D01*
X122573057Y-153743685D02*
X124681853Y-154211189D01*
X82010774Y-161139712D02*
X84119570Y-161607215D01*
X99036681Y-166222779D02*
X100560401Y-165252062D01*
%TO.N,P9*%
X107601649Y-147351765D02*
X126685414Y-135194064D01*
X87093844Y-144113805D02*
X103149026Y-147673159D01*
X86123122Y-142590084D02*
X88231930Y-143057592D01*
X86123122Y-142590084D02*
X87093844Y-144113805D01*
X139805498Y-126835642D02*
X147615873Y-128567160D01*
X126685414Y-135194064D02*
X139805498Y-126835642D01*
X126685404Y-135194061D02*
X128794201Y-135661555D01*
X182334275Y-147531120D02*
X184443082Y-147998626D01*
X104672754Y-146702446D02*
X107601649Y-147351765D01*
X104672754Y-146702446D02*
X106781548Y-147169950D01*
X163784653Y-143418762D02*
X165893455Y-143886263D01*
X147615873Y-128567160D02*
X149724670Y-129034661D01*
X103149026Y-147673159D02*
X104672754Y-146702446D01*
%TO.N,P8*%
X90235480Y-124040465D02*
X91206188Y-125564181D01*
X90235480Y-124040465D02*
X92344286Y-124507971D01*
X168867729Y-126392854D02*
X184922914Y-129952209D01*
X160086633Y-123137623D02*
X167897003Y-124869135D01*
X184922914Y-129952209D02*
X186446636Y-128981496D01*
X151728220Y-110017525D02*
X153837011Y-110485044D01*
X167897003Y-124869135D02*
X168867729Y-126392854D01*
X167897008Y-124869139D02*
X170005805Y-125336656D01*
X130797773Y-116644430D02*
X143917859Y-108286019D01*
X111713993Y-128802134D02*
X130797773Y-116644430D01*
X108785097Y-128152817D02*
X110893900Y-128620328D01*
X143917859Y-108286019D02*
X151728215Y-110017529D01*
X108785097Y-128152817D02*
X111713993Y-128802134D01*
X107261397Y-129123536D02*
X108785097Y-128152817D01*
X151728215Y-110017529D02*
X160086633Y-123137623D01*
X186446634Y-128981486D02*
X188555440Y-129449008D01*
X130797773Y-116644430D02*
X132906555Y-117111947D01*
X91206188Y-125564181D02*
X107261397Y-129123536D01*
%TO.N,P10*%
X187640856Y-193606770D02*
X189556797Y-194604143D01*
X168578772Y-186477057D02*
X170687576Y-186944572D01*
%TO.N,P9*%
X237396994Y-148420717D02*
X253452191Y-144861376D01*
X235873273Y-147450002D02*
X237396994Y-148420717D01*
X253452191Y-144861376D02*
X254422906Y-143337658D01*
X315058517Y-147592038D02*
X331113727Y-144032695D01*
X313534809Y-146621321D02*
X315058517Y-147592038D01*
X331113727Y-144032695D02*
X332084428Y-142508980D01*
%TO.N,P8*%
X310946174Y-129042421D02*
X309422453Y-128071706D01*
X327001366Y-125483078D02*
X310946174Y-129042421D01*
X327972087Y-123959353D02*
X327001366Y-125483078D01*
X249339834Y-126311741D02*
X233284639Y-129871093D01*
X233284639Y-129871093D02*
X231760923Y-128900384D01*
X250310548Y-124788024D02*
X249339834Y-126311741D01*
%TO.N,P10*%
X249628779Y-186395937D02*
X248554948Y-188081521D01*
%TO.N,P8*%
X197053452Y-139853148D02*
X197053459Y-134863474D01*
X187417352Y-130505213D02*
X195405083Y-132276053D01*
X186446631Y-128981498D02*
X187417352Y-130505213D01*
X195405083Y-132276053D02*
X197053459Y-134863474D01*
X201260301Y-144060005D02*
X197053452Y-139853148D01*
%TO.N,P9*%
X147615873Y-128567160D02*
X155974290Y-141687246D01*
X155974290Y-141687246D02*
X163784661Y-143418772D01*
X182334281Y-147531123D02*
X183392021Y-149191441D01*
X183392021Y-149191441D02*
X190030397Y-150663136D01*
X180810569Y-148501816D02*
X182334281Y-147531123D01*
X163784661Y-143418772D02*
X164755370Y-144942484D01*
X197197170Y-150663129D02*
X190030397Y-150663136D01*
X201260290Y-146599996D02*
X197197170Y-150663129D01*
X164755370Y-144942484D02*
X180810569Y-148501816D01*
%TO.N,P10*%
X223729282Y-197020311D02*
X221012385Y-196163674D01*
X230452823Y-193520261D02*
X223729282Y-197020311D01*
%TO.N,P16*%
X218314000Y-145873700D02*
X216500303Y-144059995D01*
X218314004Y-152723028D02*
X218314000Y-145873700D01*
X218314004Y-152723028D02*
X233114004Y-167523023D01*
X239985625Y-165999629D02*
X233114004Y-167523023D01*
%TO.N,P10*%
X212275121Y-179379549D02*
X216499462Y-187494440D01*
X212275121Y-179379549D02*
G75*
G03*
X210650128Y-177163394I-8011321J-4170451D01*
G01*
X209235918Y-176577603D02*
G75*
G02*
X210650122Y-177163400I-18J-1999997D01*
G01*
X208534474Y-176577607D02*
G75*
G03*
X207120277Y-177163406I26J-1999993D01*
G01*
X206184332Y-178439851D02*
G75*
G02*
X207120267Y-177163396I4615068J-2402549D01*
G01*
X195716311Y-198548731D02*
X206184332Y-178439851D01*
X194367556Y-198973995D02*
X195716311Y-198548731D01*
X188344558Y-195838620D02*
X194367556Y-198973995D01*
X208534474Y-176577607D02*
X209235918Y-176577603D01*
X187640854Y-193606774D02*
X188344558Y-195838620D01*
%TD*%
M02*
