M48
; DRILL file {KiCad 8.0.7} date 2025-03-02T16:25:07+0100
; FORMAT={-:-/ absolute / inch / decimal}
; #@! TF.CreationDate,2025-03-02T16:25:07+01:00
; #@! TF.GenerationSoftware,Kicad,Pcbnew,8.0.7
; #@! TF.FileFunction,NonPlated,1,2,NPTH
FMAT,2
INCH
; #@! TA.AperFunction,NonPlated,NPTH,ComponentDrill
T1C0.0670
; #@! TA.AperFunction,NonPlated,NPTH,ComponentDrill
T2C0.1181
; #@! TA.AperFunction,NonPlated,NPTH,ComponentDrill
T3C0.1570
%
G90
G05
T1
X3.0944Y-5.9917
X3.2563Y-5.2614
X3.4182Y-4.5311
X3.4849Y-6.0783
X3.6468Y-5.348
X3.8087Y-4.6177
X3.8247Y-6.1536
X3.9866Y-5.4233
X4.1485Y-4.693
X4.2152Y-6.2402
X4.3771Y-5.5099
X4.539Y-4.7796
X4.6913Y-5.7005
X4.8532Y-4.9702
X5.0151Y-4.2399
X5.0818Y-5.7871
X5.2437Y-5.0568
X5.4056Y-4.3265
X5.5154Y-5.4396
X5.6773Y-4.7093
X5.8392Y-3.979
X5.9059Y-5.5262
X6.0678Y-4.7959
X6.1519Y-6.0243
X6.2297Y-4.0656
X6.3138Y-5.294
X6.4757Y-4.5637
X6.5026Y-6.9892
X6.5424Y-6.1109
X6.7043Y-5.3806
X6.8662Y-4.6503
X6.8822Y-6.1862
X6.8931Y-7.0758
X7.0441Y-5.4559
X7.206Y-4.7256
X7.2727Y-6.2728
X7.3488Y-7.2471
X7.4346Y-5.5425
X7.5965Y-4.8122
X7.7036Y-7.4318
X8.7436Y-7.4318
X8.8507Y-4.8122
X9.0126Y-5.5425
X9.0984Y-7.2471
X9.1745Y-6.2728
X9.2412Y-4.7256
X9.4031Y-5.4559
X9.5542Y-7.0758
X9.565Y-6.1862
X9.581Y-4.6503
X9.7429Y-5.3806
X9.9048Y-6.1109
X9.9447Y-6.9892
X9.9715Y-4.5637
X10.1334Y-5.294
X10.2176Y-4.0656
X10.2953Y-6.0243
X10.3795Y-4.7959
X10.5414Y-5.5262
X10.6081Y-3.979
X10.77Y-4.7093
X10.9319Y-5.4396
X11.0416Y-4.3265
X11.2035Y-5.0568
X11.3654Y-5.7871
X11.4321Y-4.2399
X11.594Y-4.9702
X11.7559Y-5.7005
X11.9083Y-4.7796
X12.0702Y-5.5099
X12.2321Y-6.2402
X12.2988Y-4.693
X12.4607Y-5.4233
X12.6226Y-6.1536
X12.6386Y-4.6177
X12.8005Y-5.348
X12.9624Y-6.0783
X13.0291Y-4.5311
X13.191Y-5.2614
X13.3529Y-5.9917
T2
X3.1648Y-5.9049
X3.3267Y-5.1746
X3.4306Y-5.8614
X3.4886Y-4.4443
X3.5925Y-5.1311
X3.7544Y-4.4008
X3.8951Y-6.0668
X4.057Y-5.3365
X4.1609Y-6.0233
X4.2189Y-4.6062
X4.3228Y-5.293
X4.4847Y-4.5627
X4.7618Y-5.6137
X4.9237Y-4.8834
X5.0275Y-5.5702
X5.0856Y-4.1531
X5.1894Y-4.8399
X5.3513Y-4.1096
X5.5858Y-5.3528
X5.7477Y-4.6225
X5.8515Y-5.3093
X5.9096Y-3.8922
X6.0134Y-4.579
X6.1753Y-3.8487
X6.2224Y-5.9375
X6.3843Y-5.2072
X6.4881Y-5.894
X6.5462Y-4.4769
X6.573Y-6.9024
X6.65Y-5.1637
X6.8119Y-4.4334
X6.8387Y-6.8589
X6.9527Y-6.0994
X7.1146Y-5.3691
X7.2184Y-6.0559
X7.2765Y-4.6388
X7.3803Y-5.3256
X7.4394Y-7.1815
X7.5422Y-4.5953
X7.7073Y-7.2083
X8.7418Y-7.32
X8.8779Y-4.7037
X8.9174Y-7.1159
X9.0398Y-5.434
X9.1003Y-4.552
X9.2017Y-6.1643
X9.2622Y-5.2823
X9.4241Y-6.0126
X9.5814Y-6.9673
X9.6082Y-4.5418
X9.7701Y-5.2721
X9.8038Y-6.8156
X9.8306Y-4.3901
X9.932Y-6.0024
X9.9925Y-5.1204
X10.1544Y-5.8507
X10.2448Y-3.9571
X10.4067Y-4.6874
X10.4672Y-3.8054
X10.5686Y-5.4177
X10.6291Y-4.5357
X10.791Y-5.266
X11.0688Y-4.218
X11.2307Y-4.9483
X11.2912Y-4.0663
X11.3926Y-5.6786
X11.4531Y-4.7966
X11.615Y-5.5269
X11.9354Y-4.6711
X12.0973Y-5.4014
X12.1579Y-4.5194
X12.2592Y-6.1317
X12.3198Y-5.2497
X12.4817Y-5.98
X12.6657Y-4.5092
X12.8276Y-5.2395
X12.8882Y-4.3575
X12.9895Y-5.9698
X13.0501Y-5.0878
X13.212Y-5.8181
T3
X3.2896Y-6.035
X3.4515Y-5.3047
X3.6134Y-4.5744
X4.0199Y-6.1969
X4.1818Y-5.4666
X4.3437Y-4.7363
X4.8866Y-5.7438
X5.0485Y-5.0135
X5.2104Y-4.2832
X5.7106Y-5.4829
X5.8725Y-4.7526
X6.0344Y-4.0223
X6.3472Y-6.0676
X6.5091Y-5.3373
X6.671Y-4.607
X6.6978Y-7.0325
X7.0775Y-6.2295
X7.2394Y-5.4992
X7.4013Y-4.7689
X7.5262Y-7.3395
X8.921Y-7.3395
X9.046Y-4.7689
X9.2079Y-5.4992
X9.3698Y-6.2295
X9.7494Y-7.0325
X9.7763Y-4.607
X9.9382Y-5.3373
X10.1001Y-6.0676
X10.4128Y-4.0223
X10.5748Y-4.7526
X10.7367Y-5.4829
X11.2369Y-4.2832
X11.3988Y-5.0135
X11.5607Y-5.7438
X12.1035Y-4.7363
X12.2654Y-5.4666
X12.4273Y-6.1969
X12.8338Y-4.5744
X12.9957Y-5.3047
X13.1576Y-6.035
M30
