M48
; DRILL file {KiCad 8.0.7} date 2025-03-02T16:25:07+0100
; FORMAT={-:-/ absolute / inch / decimal}
; #@! TF.CreationDate,2025-03-02T16:25:07+01:00
; #@! TF.GenerationSoftware,Kicad,Pcbnew,8.0.7
; #@! TF.FileFunction,Plated,1,2,PTH
FMAT,2
INCH
; #@! TA.AperFunction,Plated,PTH,ViaDrill
T1C0.0157
; #@! TA.AperFunction,Plated,PTH,ComponentDrill
T2C0.0390
; #@! TA.AperFunction,Plated,PTH,ComponentDrill
T3C0.0430
%
G90
G05
T1
X8.677Y-5.6672
X8.677Y-5.8581
T2
X3.2288Y-6.3441
X3.3907Y-5.6138
X3.5217Y-6.409
X3.5526Y-4.8835
X3.6836Y-5.6787
X3.8455Y-4.9484
X3.9591Y-6.506
X4.121Y-5.7757
X4.252Y-6.5709
X4.2829Y-5.0454
X4.4139Y-5.8406
X4.5758Y-5.1103
X4.8257Y-6.0529
X4.9876Y-5.3226
X5.1186Y-6.1178
X5.1495Y-4.5923
X5.2805Y-5.3875
X5.4424Y-4.6572
X5.6497Y-5.792
X5.8116Y-5.0617
X5.9426Y-5.8569
X5.9736Y-4.3314
X6.1045Y-5.1266
X6.2664Y-4.3963
X6.2863Y-6.3767
X6.4482Y-5.6464
X6.5792Y-6.4416
X6.6101Y-4.9161
X6.637Y-7.3416
X6.7411Y-5.7113
X6.903Y-4.981
X6.9298Y-7.4065
X7.0166Y-6.5386
X7.1785Y-5.8083
X7.3095Y-6.6035
X7.3404Y-5.078
X7.3874Y-7.6223
X7.4714Y-5.8732
X7.6333Y-5.1429
X7.6535Y-7.7608
X9.0729Y-7.6189
X9.1244Y-5.0748
X9.2863Y-5.8051
X9.339Y-7.4804
X9.4173Y-5.0099
X9.4483Y-6.5354
X9.5792Y-5.7402
X9.7411Y-6.4705
X9.8279Y-7.3384
X9.8547Y-4.9129
X10.0166Y-5.6432
X10.1208Y-7.2735
X10.1476Y-4.848
X10.1786Y-6.3735
X10.3095Y-5.5783
X10.4714Y-6.3086
X10.4913Y-4.3282
X10.6532Y-5.0585
X10.7842Y-4.2633
X10.8151Y-5.7888
X10.9461Y-4.9936
X11.108Y-5.7239
X11.3153Y-4.5891
X11.4773Y-5.3194
X11.6082Y-4.5242
X11.6392Y-6.0497
X11.7701Y-5.2545
X11.932Y-5.9848
X12.182Y-5.0422
X12.3439Y-5.7725
X12.4749Y-4.9773
X12.5058Y-6.5028
X12.6368Y-5.7076
X12.7987Y-6.4379
X12.9123Y-4.8803
X13.0742Y-5.6106
X13.2052Y-4.8154
X13.2361Y-6.3409
X13.3671Y-5.5457
X13.529Y-6.276
T3
X7.9236Y-5.2717
X7.9236Y-4.6717
X7.9236Y-5.3717
X7.9236Y-5.5717
X7.9236Y-4.7717
X7.9236Y-4.8717
X7.9236Y-4.9717
X7.9236Y-5.0717
X7.9236Y-5.1717
X7.9236Y-5.4717
X7.9236Y-5.7717
X7.9236Y-5.6717
X8.5236Y-4.7717
X8.5236Y-4.6717
X8.5236Y-4.9717
X8.5236Y-5.2717
X8.5236Y-5.3717
X8.5236Y-5.4717
X8.5236Y-5.5717
X8.5236Y-5.6717
X8.5236Y-4.8717
X8.5236Y-5.0717
X8.5236Y-5.7717
X8.5236Y-5.1717
M30
