%TF.GenerationSoftware,KiCad,Pcbnew,8.0.7*%
%TF.CreationDate,2025-03-02T16:24:29+01:00*%
%TF.ProjectId,pcb-adjusted,7063622d-6164-46a7-9573-7465642e6b69,v1.0.0*%
%TF.SameCoordinates,Original*%
%TF.FileFunction,Copper,L2,Bot*%
%TF.FilePolarity,Positive*%
%FSLAX46Y46*%
G04 Gerber Fmt 4.6, Leading zero omitted, Abs format (unit mm)*
G04 Created by KiCad (PCBNEW 8.0.7) date 2025-03-02 16:24:29*
%MOMM*%
%LPD*%
G01*
G04 APERTURE LIST*
G04 Aperture macros list*
%AMRotRect*
0 Rectangle, with rotation*
0 The origin of the aperture is its center*
0 $1 length*
0 $2 width*
0 $3 Rotation angle, in degrees counterclockwise*
0 Add horizontal line*
21,1,$1,$2,0,0,$3*%
G04 Aperture macros list end*
%TA.AperFunction,ComponentPad*%
%ADD10RotRect,1.778000X1.778000X12.500000*%
%TD*%
%TA.AperFunction,SMDPad,CuDef*%
%ADD11RotRect,0.900000X1.200000X12.500000*%
%TD*%
%TA.AperFunction,ComponentPad*%
%ADD12C,1.905000*%
%TD*%
%TA.AperFunction,SMDPad,CuDef*%
%ADD13RotRect,2.550000X2.500000X12.500000*%
%TD*%
%TA.AperFunction,SMDPad,CuDef*%
%ADD14RotRect,2.550000X2.500000X347.500000*%
%TD*%
%TA.AperFunction,ComponentPad*%
%ADD15RotRect,1.778000X1.778000X347.500000*%
%TD*%
%TA.AperFunction,SMDPad,CuDef*%
%ADD16RotRect,0.900000X1.200000X347.500000*%
%TD*%
%TA.AperFunction,SMDPad,CuDef*%
%ADD17RotRect,2.550000X2.500000X27.500000*%
%TD*%
%TA.AperFunction,ComponentPad*%
%ADD18RotRect,1.778000X1.778000X332.500000*%
%TD*%
%TA.AperFunction,SMDPad,CuDef*%
%ADD19RotRect,0.900000X1.200000X332.500000*%
%TD*%
%TA.AperFunction,SMDPad,CuDef*%
%ADD20RotRect,2.550000X2.500000X332.500000*%
%TD*%
%TA.AperFunction,ComponentPad*%
%ADD21RotRect,1.778000X1.778000X27.500000*%
%TD*%
%TA.AperFunction,SMDPad,CuDef*%
%ADD22RotRect,0.900000X1.200000X27.500000*%
%TD*%
%TA.AperFunction,ComponentPad*%
%ADD23R,1.752600X1.752600*%
%TD*%
%TA.AperFunction,ComponentPad*%
%ADD24C,1.752600*%
%TD*%
%TA.AperFunction,ViaPad*%
%ADD25C,0.800000*%
%TD*%
%TA.AperFunction,Conductor*%
%ADD26C,0.250000*%
%TD*%
G04 APERTURE END LIST*
D10*
%TO.P,D22,1*%
%TO.N,P9*%
X332084436Y-142508981D03*
D11*
X334193235Y-142041466D03*
%TO.P,D22,2*%
%TO.N,mirror_outer_home*%
X337415011Y-141327220D03*
D12*
X339523810Y-140859705D03*
%TD*%
D10*
%TO.P,D23,1*%
%TO.N,P8*%
X327972079Y-123959353D03*
D11*
X330080878Y-123491838D03*
%TO.P,D23,2*%
%TO.N,mirror_outer_top*%
X333302654Y-122777592D03*
D12*
X335411453Y-122310077D03*
%TD*%
D13*
%TO.P,S38,1*%
%TO.N,P14*%
X222301137Y-120183682D03*
%TO.P,S38,2*%
%TO.N,mirror_inner_top*%
X234371958Y-114905975D03*
%TD*%
D14*
%TO.P,S9,1*%
%TO.N,P4*%
X125976481Y-104779672D03*
%TO.P,S9,2*%
%TO.N,ring_top*%
X139146818Y-105097798D03*
%TD*%
%TO.P,S2,1*%
%TO.N,P2*%
X81301849Y-130725336D03*
%TO.P,S2,2*%
%TO.N,outer_home*%
X94472186Y-131043462D03*
%TD*%
D10*
%TO.P,D28,1*%
%TO.N,P9*%
X291522163Y-135112955D03*
D11*
X293630962Y-134645440D03*
%TO.P,D28,2*%
%TO.N,mirror_ring_home*%
X296852738Y-133931194D03*
D12*
X298961537Y-133463679D03*
%TD*%
D14*
%TO.P,S18,1*%
%TO.N,P7*%
X181625352Y-117116728D03*
%TO.P,S18,2*%
%TO.N,inner_top*%
X194795689Y-117434854D03*
%TD*%
D15*
%TO.P,D10,1*%
%TO.N,P16*%
X143503515Y-147116784D03*
D16*
X145612317Y-147584290D03*
%TO.P,D10,2*%
%TO.N,middle_bottom*%
X148834091Y-148298544D03*
D12*
X150942893Y-148766050D03*
%TD*%
D13*
%TO.P,S30,1*%
%TO.N,P18*%
X265244250Y-138318967D03*
%TO.P,S30,2*%
%TO.N,mirror_middle_bottom*%
X277315071Y-133041260D03*
%TD*%
D14*
%TO.P,S7,1*%
%TO.N,P4*%
X117751778Y-141878928D03*
%TO.P,S7,2*%
%TO.N,ring_bottom*%
X130922115Y-142197054D03*
%TD*%
%TO.P,S6,1*%
%TO.N,P3*%
X103963824Y-116288049D03*
%TO.P,S6,2*%
%TO.N,pinky_top*%
X117134161Y-116606175D03*
%TD*%
D15*
%TO.P,D3,1*%
%TO.N,P8*%
X90235479Y-124040471D03*
D16*
X92344281Y-124507977D03*
%TO.P,D3,2*%
%TO.N,outer_top*%
X95566055Y-125222231D03*
D12*
X97674857Y-125689737D03*
%TD*%
D13*
%TO.P,S25,1*%
%TO.N,P20*%
X304075009Y-137904633D03*
%TO.P,S25,2*%
%TO.N,mirror_pinky_home*%
X316145830Y-132626926D03*
%TD*%
%TO.P,S34,1*%
%TO.N,P15*%
X244963108Y-134620944D03*
%TO.P,S34,2*%
%TO.N,mirror_index_home*%
X257033929Y-129343237D03*
%TD*%
D10*
%TO.P,D24,1*%
%TO.N,P16*%
X317647160Y-165170952D03*
D11*
X319755959Y-164703437D03*
%TO.P,D24,2*%
%TO.N,mirror_pinky_bottom*%
X322977735Y-163989191D03*
D12*
X325086534Y-163521676D03*
%TD*%
D15*
%TO.P,D1,1*%
%TO.N,P16*%
X82010778Y-161139712D03*
D16*
X84119580Y-161607218D03*
%TO.P,D1,2*%
%TO.N,outer_bottom*%
X87341354Y-162321472D03*
D12*
X89450156Y-162788978D03*
%TD*%
D14*
%TO.P,S19,1*%
%TO.N,P6*%
X163757501Y-174612300D03*
%TO.P,S19,2*%
%TO.N,near_thumb*%
X176927838Y-174930426D03*
%TD*%
D15*
%TO.P,D13,1*%
%TO.N,P16*%
X159672304Y-161968394D03*
D16*
X161781106Y-162435900D03*
%TO.P,D13,2*%
%TO.N,index_bottom*%
X165002880Y-163150154D03*
D12*
X167111682Y-163617660D03*
%TD*%
D14*
%TO.P,S10,1*%
%TO.N,P5*%
X138682231Y-135252014D03*
%TO.P,S10,2*%
%TO.N,middle_bottom*%
X151852568Y-135570140D03*
%TD*%
D15*
%TO.P,D17,1*%
%TO.N,P9*%
X182334279Y-147531124D03*
D16*
X184443081Y-147998630D03*
%TO.P,D17,2*%
%TO.N,inner_home*%
X187664855Y-148712884D03*
D12*
X189773657Y-149180390D03*
%TD*%
D14*
%TO.P,S16,1*%
%TO.N,P7*%
X173400645Y-154215979D03*
%TO.P,S16,2*%
%TO.N,inner_bottom*%
X186570982Y-154534105D03*
%TD*%
D17*
%TO.P,S40,1*%
%TO.N,P14*%
X219136977Y-187441435D03*
%TO.P,S40,2*%
%TO.N,mirror_home_thumb*%
X229430525Y-179219403D03*
%TD*%
D15*
%TO.P,D2,1*%
%TO.N,P9*%
X86123124Y-142590099D03*
D16*
X88231926Y-143057605D03*
%TO.P,D2,2*%
%TO.N,outer_home*%
X91453700Y-143771859D03*
D12*
X93562502Y-144239365D03*
%TD*%
D10*
%TO.P,D33,1*%
%TO.N,P16*%
X258535249Y-161887276D03*
D11*
X260644048Y-161419761D03*
%TO.P,D33,2*%
%TO.N,mirror_index_bottom*%
X263865824Y-160705515D03*
D12*
X265974623Y-160238000D03*
%TD*%
D14*
%TO.P,S13,1*%
%TO.N,P6*%
X154851020Y-150103623D03*
%TO.P,S13,2*%
%TO.N,index_bottom*%
X168021357Y-150421749D03*
%TD*%
D18*
%TO.P,D20,1*%
%TO.N,P10*%
X187640858Y-193606774D03*
D19*
X189556802Y-194604151D03*
%TO.P,D20,2*%
%TO.N,home_thumb*%
X192483934Y-196127919D03*
D12*
X194399878Y-197125296D03*
%TD*%
D13*
%TO.P,S35,1*%
%TO.N,P15*%
X240850762Y-116071324D03*
%TO.P,S35,2*%
%TO.N,mirror_index_top*%
X252921583Y-110793617D03*
%TD*%
%TO.P,S31,1*%
%TO.N,P18*%
X261131899Y-119769348D03*
%TO.P,S31,2*%
%TO.N,mirror_middle_home*%
X273202720Y-114491641D03*
%TD*%
%TO.P,S29,1*%
%TO.N,P19*%
X277950003Y-107846626D03*
%TO.P,S29,2*%
%TO.N,mirror_ring_top*%
X290020824Y-102568919D03*
%TD*%
D10*
%TO.P,D27,1*%
%TO.N,P16*%
X295634508Y-153662575D03*
D11*
X297743307Y-153195060D03*
%TO.P,D27,2*%
%TO.N,mirror_ring_bottom*%
X300965083Y-152480814D03*
D12*
X303073882Y-152013299D03*
%TD*%
D15*
%TO.P,D11,1*%
%TO.N,P9*%
X147615870Y-128567155D03*
D16*
X149724672Y-129034661D03*
%TO.P,D11,2*%
%TO.N,middle_home*%
X152946446Y-129748915D03*
D12*
X155055248Y-130216421D03*
%TD*%
D10*
%TO.P,D32,1*%
%TO.N,P8*%
X266479345Y-109936423D03*
D11*
X268588144Y-109468908D03*
%TO.P,D32,2*%
%TO.N,mirror_middle_top*%
X271809920Y-108754662D03*
D12*
X273918719Y-108287147D03*
%TD*%
D10*
%TO.P,D38,1*%
%TO.N,P8*%
X231760927Y-128900375D03*
D11*
X233869726Y-128432860D03*
%TO.P,D38,2*%
%TO.N,mirror_inner_top*%
X237091502Y-127718614D03*
D12*
X239200301Y-127251099D03*
%TD*%
D13*
%TO.P,S28,1*%
%TO.N,P19*%
X282062363Y-126396240D03*
%TO.P,S28,2*%
%TO.N,mirror_ring_home*%
X294133184Y-121118533D03*
%TD*%
D15*
%TO.P,D12,1*%
%TO.N,P8*%
X151728215Y-110017534D03*
D16*
X153837017Y-110485040D03*
%TO.P,D12,2*%
%TO.N,middle_top*%
X157058791Y-111199294D03*
D12*
X159167593Y-111666800D03*
%TD*%
D13*
%TO.P,S37,1*%
%TO.N,P14*%
X226413489Y-138733310D03*
%TO.P,S37,2*%
%TO.N,mirror_inner_home*%
X238484310Y-133455603D03*
%TD*%
D10*
%TO.P,D26,1*%
%TO.N,P8*%
X309422452Y-128071708D03*
D11*
X311531251Y-127604193D03*
%TO.P,D26,2*%
%TO.N,mirror_pinky_top*%
X314753027Y-126889947D03*
D12*
X316861826Y-126422432D03*
%TD*%
D15*
%TO.P,D7,1*%
%TO.N,P16*%
X122573052Y-153743683D03*
D16*
X124681854Y-154211189D03*
%TO.P,D7,2*%
%TO.N,ring_bottom*%
X127903628Y-154925443D03*
D12*
X130012430Y-155392949D03*
%TD*%
D15*
%TO.P,D8,1*%
%TO.N,P9*%
X126685411Y-135194064D03*
D16*
X128794213Y-135661570D03*
%TO.P,D8,2*%
%TO.N,ring_home*%
X132015987Y-136375824D03*
D12*
X134124789Y-136843330D03*
%TD*%
D13*
%TO.P,S21,1*%
%TO.N,P21*%
X326736993Y-152341901D03*
%TO.P,S21,2*%
%TO.N,mirror_outer_bottom*%
X338807814Y-147064194D03*
%TD*%
D14*
%TO.P,S15,1*%
%TO.N,P6*%
X163075726Y-113004374D03*
%TO.P,S15,2*%
%TO.N,index_top*%
X176246063Y-113322500D03*
%TD*%
D10*
%TO.P,D37,1*%
%TO.N,P9*%
X235873284Y-147450012D03*
D11*
X237982083Y-146982497D03*
%TO.P,D37,2*%
%TO.N,mirror_inner_home*%
X241203859Y-146268251D03*
D12*
X243312658Y-145800736D03*
%TD*%
D10*
%TO.P,D34,1*%
%TO.N,P9*%
X254422902Y-143337650D03*
D11*
X256531701Y-142870135D03*
%TO.P,D34,2*%
%TO.N,mirror_index_home*%
X259753477Y-142155889D03*
D12*
X261862276Y-141688374D03*
%TD*%
D15*
%TO.P,D16,1*%
%TO.N,P16*%
X178221930Y-166080742D03*
D16*
X180330732Y-166548248D03*
%TO.P,D16,2*%
%TO.N,inner_bottom*%
X183552506Y-167262502D03*
D12*
X185661308Y-167730008D03*
%TD*%
D15*
%TO.P,D18,1*%
%TO.N,P8*%
X186446633Y-128981494D03*
D16*
X188555435Y-129449000D03*
%TO.P,D18,2*%
%TO.N,inner_top*%
X191777209Y-130163254D03*
D12*
X193886011Y-130630760D03*
%TD*%
D13*
%TO.P,S32,1*%
%TO.N,P18*%
X257019544Y-101219718D03*
%TO.P,S32,2*%
%TO.N,mirror_middle_top*%
X269090365Y-95942011D03*
%TD*%
D20*
%TO.P,S20,1*%
%TO.N,P7*%
X186054692Y-180898450D03*
%TO.P,S20,2*%
%TO.N,home_thumb*%
X198693921Y-184614473D03*
%TD*%
D10*
%TO.P,D21,1*%
%TO.N,P16*%
X336196778Y-161058606D03*
D11*
X338305577Y-160591091D03*
%TO.P,D21,2*%
%TO.N,mirror_outer_bottom*%
X341527353Y-159876845D03*
D12*
X343636152Y-159409330D03*
%TD*%
D10*
%TO.P,D39,1*%
%TO.N,P10*%
X249628779Y-186395939D03*
D11*
X251737578Y-185928424D03*
%TO.P,D39,2*%
%TO.N,mirror_near_thumb*%
X254959354Y-185214178D03*
D12*
X257068153Y-184746663D03*
%TD*%
D13*
%TO.P,S26,1*%
%TO.N,P20*%
X299962666Y-119355010D03*
%TO.P,S26,2*%
%TO.N,mirror_pinky_top*%
X312033487Y-114077303D03*
%TD*%
%TO.P,S22,1*%
%TO.N,P21*%
X322624641Y-133792277D03*
%TO.P,S22,2*%
%TO.N,mirror_outer_home*%
X334695462Y-128514570D03*
%TD*%
D14*
%TO.P,S11,1*%
%TO.N,P5*%
X142794589Y-116702397D03*
%TO.P,S11,2*%
%TO.N,middle_home*%
X155964926Y-117020523D03*
%TD*%
%TO.P,S1,1*%
%TO.N,P2*%
X77189498Y-149274949D03*
%TO.P,S1,2*%
%TO.N,outer_bottom*%
X90359835Y-149593075D03*
%TD*%
D15*
%TO.P,D9,1*%
%TO.N,P8*%
X130797762Y-116644433D03*
D16*
X132906564Y-117111939D03*
%TO.P,D9,2*%
%TO.N,ring_top*%
X136128338Y-117826193D03*
D12*
X138237140Y-118293699D03*
%TD*%
D13*
%TO.P,S27,1*%
%TO.N,P19*%
X286174707Y-144945875D03*
%TO.P,S27,2*%
%TO.N,mirror_ring_bottom*%
X298245528Y-139668168D03*
%TD*%
D15*
%TO.P,D15,1*%
%TO.N,P8*%
X167897010Y-124869139D03*
D16*
X170005812Y-125336645D03*
%TO.P,D15,2*%
%TO.N,index_top*%
X173227586Y-126050899D03*
D12*
X175336388Y-126518405D03*
%TD*%
D14*
%TO.P,S12,1*%
%TO.N,P5*%
X146906935Y-98152763D03*
%TO.P,S12,2*%
%TO.N,middle_top*%
X160077272Y-98470889D03*
%TD*%
D15*
%TO.P,D4,1*%
%TO.N,P16*%
X100560393Y-165252068D03*
D16*
X102669195Y-165719574D03*
%TO.P,D4,2*%
%TO.N,pinky_bottom*%
X105890969Y-166433828D03*
D12*
X107999771Y-166901334D03*
%TD*%
D10*
%TO.P,D35,1*%
%TO.N,P8*%
X250310559Y-124788028D03*
D11*
X252419358Y-124320513D03*
%TO.P,D35,2*%
%TO.N,mirror_index_top*%
X255641134Y-123606267D03*
D12*
X257749933Y-123138752D03*
%TD*%
D21*
%TO.P,D40,1*%
%TO.N,P10*%
X230452824Y-193520260D03*
D22*
X232368768Y-192522883D03*
%TO.P,D40,2*%
%TO.N,mirror_home_thumb*%
X235295900Y-190999115D03*
D12*
X237211844Y-190001738D03*
%TD*%
D13*
%TO.P,S33,1*%
%TO.N,P15*%
X249075463Y-153170581D03*
%TO.P,S33,2*%
%TO.N,mirror_index_bottom*%
X261146284Y-147892874D03*
%TD*%
D14*
%TO.P,S8,1*%
%TO.N,P4*%
X121864126Y-123329286D03*
%TO.P,S8,2*%
%TO.N,ring_home*%
X135034463Y-123647412D03*
%TD*%
D15*
%TO.P,D6,1*%
%TO.N,P8*%
X108785106Y-128152817D03*
D16*
X110893908Y-128620323D03*
%TO.P,D6,2*%
%TO.N,pinky_top*%
X114115682Y-129334577D03*
D12*
X116224484Y-129802083D03*
%TD*%
D15*
%TO.P,D19,1*%
%TO.N,P10*%
X168578765Y-186477048D03*
D16*
X170687567Y-186944554D03*
%TO.P,D19,2*%
%TO.N,near_thumb*%
X173909341Y-187658808D03*
D12*
X176018143Y-188126314D03*
%TD*%
D14*
%TO.P,S4,1*%
%TO.N,P3*%
X95739110Y-153387304D03*
%TO.P,S4,2*%
%TO.N,pinky_bottom*%
X108909447Y-153705430D03*
%TD*%
D15*
%TO.P,D5,1*%
%TO.N,P9*%
X104672742Y-146702438D03*
D16*
X106781544Y-147169944D03*
%TO.P,D5,2*%
%TO.N,pinky_home*%
X110003318Y-147884198D03*
D12*
X112112120Y-148351704D03*
%TD*%
D14*
%TO.P,S17,1*%
%TO.N,P7*%
X177512997Y-135666348D03*
%TO.P,S17,2*%
%TO.N,inner_home*%
X190683334Y-135984474D03*
%TD*%
%TO.P,S14,1*%
%TO.N,P6*%
X158963375Y-131554007D03*
%TO.P,S14,2*%
%TO.N,index_home*%
X172133712Y-131872133D03*
%TD*%
%TO.P,S3,1*%
%TO.N,P2*%
X85414191Y-112175701D03*
%TO.P,S3,2*%
%TO.N,outer_top*%
X98584528Y-112493827D03*
%TD*%
D10*
%TO.P,D30,1*%
%TO.N,P16*%
X274704043Y-147035667D03*
D11*
X276812842Y-146568152D03*
%TO.P,D30,2*%
%TO.N,mirror_middle_bottom*%
X280034618Y-145853906D03*
D12*
X282143417Y-145386391D03*
%TD*%
D14*
%TO.P,S5,1*%
%TO.N,P3*%
X99851475Y-134837688D03*
%TO.P,S5,2*%
%TO.N,pinky_home*%
X113021812Y-135155814D03*
%TD*%
D13*
%TO.P,S36,1*%
%TO.N,P14*%
X230525828Y-157282925D03*
%TO.P,S36,2*%
%TO.N,mirror_inner_bottom*%
X242596649Y-152005218D03*
%TD*%
%TO.P,S39,1*%
%TO.N,P15*%
X240168998Y-177679244D03*
%TO.P,S39,2*%
%TO.N,mirror_near_thumb*%
X252239819Y-172401537D03*
%TD*%
D15*
%TO.P,D14,1*%
%TO.N,P9*%
X163784657Y-143418765D03*
D16*
X165893459Y-143886271D03*
%TO.P,D14,2*%
%TO.N,index_home*%
X169115233Y-144600525D03*
D12*
X171224035Y-145068031D03*
%TD*%
D10*
%TO.P,D25,1*%
%TO.N,P9*%
X313534808Y-146621335D03*
D11*
X315643607Y-146153820D03*
%TO.P,D25,2*%
%TO.N,mirror_pinky_home*%
X318865383Y-145439574D03*
D12*
X320974182Y-144972059D03*
%TD*%
D13*
%TO.P,S24,1*%
%TO.N,P20*%
X308187369Y-156454245D03*
%TO.P,S24,2*%
%TO.N,mirror_pinky_bottom*%
X320258190Y-151176538D03*
%TD*%
D10*
%TO.P,D31,1*%
%TO.N,P9*%
X270591692Y-128486048D03*
D11*
X272700491Y-128018533D03*
%TO.P,D31,2*%
%TO.N,mirror_middle_home*%
X275922267Y-127304287D03*
D12*
X278031066Y-126836772D03*
%TD*%
D10*
%TO.P,D29,1*%
%TO.N,P8*%
X287409797Y-116563326D03*
D11*
X289518596Y-116095811D03*
%TO.P,D29,2*%
%TO.N,mirror_ring_top*%
X292740372Y-115381565D03*
D12*
X294849171Y-114914050D03*
%TD*%
D13*
%TO.P,S23,1*%
%TO.N,P21*%
X318512293Y-115242652D03*
%TO.P,S23,2*%
%TO.N,mirror_outer_top*%
X330583114Y-109964945D03*
%TD*%
D10*
%TO.P,D36,1*%
%TO.N,P16*%
X239985624Y-165999623D03*
D11*
X242094423Y-165532108D03*
%TO.P,D36,2*%
%TO.N,mirror_inner_bottom*%
X245316199Y-164817862D03*
D12*
X247424998Y-164350347D03*
%TD*%
D23*
%TO.P,MCU1,1*%
%TO.N,RAW*%
X216500300Y-118659992D03*
D24*
%TO.P,MCU1,2*%
%TO.N,GND*%
X216500298Y-121199993D03*
%TO.P,MCU1,3*%
%TO.N,RST*%
X216500301Y-123739998D03*
%TO.P,MCU1,4*%
%TO.N,VCC*%
X216500300Y-126279994D03*
%TO.P,MCU1,5*%
%TO.N,P21*%
X216500301Y-128819995D03*
%TO.P,MCU1,6*%
%TO.N,P20*%
X216500302Y-131359994D03*
%TO.P,MCU1,7*%
%TO.N,P19*%
X216500300Y-133899993D03*
%TO.P,MCU1,8*%
%TO.N,P18*%
X216500300Y-136439995D03*
%TO.P,MCU1,9*%
%TO.N,P15*%
X216500300Y-138979994D03*
%TO.P,MCU1,10*%
%TO.N,P14*%
X216500300Y-141519994D03*
%TO.P,MCU1,11*%
%TO.N,P16*%
X216500300Y-144059994D03*
%TO.P,MCU1,12*%
%TO.N,P10*%
X216500301Y-146599995D03*
%TO.P,MCU1,13*%
%TO.N,P1*%
X201260299Y-118659993D03*
%TO.P,MCU1,14*%
%TO.N,P0*%
X201260300Y-121199994D03*
%TO.P,MCU1,15*%
%TO.N,GND*%
X201260300Y-123739994D03*
%TO.P,MCU1,16*%
X201260300Y-126279994D03*
%TO.P,MCU1,17*%
%TO.N,P2*%
X201260300Y-128819993D03*
%TO.P,MCU1,18*%
%TO.N,P3*%
X201260300Y-131359995D03*
%TO.P,MCU1,19*%
%TO.N,P4*%
X201260298Y-133899994D03*
%TO.P,MCU1,20*%
%TO.N,P5*%
X201260299Y-136439993D03*
%TO.P,MCU1,21*%
%TO.N,P6*%
X201260300Y-138979994D03*
%TO.P,MCU1,22*%
%TO.N,P7*%
X201260299Y-141519990D03*
%TO.P,MCU1,23*%
%TO.N,P8*%
X201260302Y-144059995D03*
%TO.P,MCU1,24*%
%TO.N,P9*%
X201260300Y-146599996D03*
%TD*%
D25*
%TO.N,P9*%
X220396954Y-148796945D03*
%TO.N,P8*%
X220395758Y-143946365D03*
%TD*%
D26*
%TO.N,P6*%
X153339826Y-156920224D02*
X154851016Y-150103627D01*
X157351061Y-163216606D02*
X153339826Y-156920224D01*
X154851016Y-150103627D02*
X163075727Y-113004381D01*
X165002487Y-168996498D02*
X161973081Y-164241284D01*
X163757497Y-174612284D02*
X165002487Y-168996498D01*
X161973081Y-164241284D02*
X157351061Y-163216606D01*
%TO.N,P15*%
X219760255Y-115077599D02*
X219627094Y-115286619D01*
X233440797Y-112044693D02*
X219760255Y-115077599D01*
X234248982Y-111865525D02*
X233440797Y-112044693D01*
X240850761Y-116071323D02*
X234248982Y-111865525D01*
%TO.N,P18*%
X254438679Y-106928649D02*
X219281443Y-114722822D01*
X219281443Y-114722822D02*
X219177092Y-114886620D01*
X257292187Y-102449537D02*
X254568816Y-106724371D01*
X257019546Y-101219719D02*
X257292187Y-102449537D01*
X254568816Y-106724371D02*
X254438679Y-106928649D01*
%TO.N,P19*%
X218802639Y-114368041D02*
X218727094Y-114486620D01*
X248301815Y-107828230D02*
X218802639Y-114368041D01*
X252624079Y-106870008D02*
X248301815Y-107828230D01*
X255718323Y-104082488D02*
X254159307Y-106529655D01*
X254159307Y-106529655D02*
X252624079Y-106870008D01*
X255071609Y-95060326D02*
X254067559Y-96636374D01*
X254067559Y-96636374D02*
X255718323Y-104082488D01*
X255174928Y-95037421D02*
X255071609Y-95060326D01*
X270198006Y-91706887D02*
X269183388Y-91931823D01*
X271551724Y-92569301D02*
X270198006Y-91706887D01*
X271554669Y-92582584D02*
X271551724Y-92569301D01*
X273497050Y-100359092D02*
X273242767Y-100197095D01*
X269183388Y-91931823D02*
X255174931Y-95037424D01*
X255174931Y-95037424D02*
X255174928Y-95037421D01*
X276749404Y-102431067D02*
X273497050Y-100359092D01*
X273242767Y-100197095D02*
X271554669Y-92582584D01*
X277950003Y-107846626D02*
X276749404Y-102431067D01*
%TO.N,P20*%
X218323826Y-114013264D02*
X218277092Y-114086621D01*
X251940904Y-106560536D02*
X248022439Y-107429241D01*
X253879930Y-106130664D02*
X251940904Y-106560536D01*
X255238647Y-103997911D02*
X253879930Y-106130664D01*
X254792233Y-94661336D02*
X253587882Y-96551794D01*
X255027327Y-94609217D02*
X254792233Y-94661336D01*
X248022439Y-107429241D02*
X218323826Y-114013264D01*
X268696860Y-91578754D02*
X255027327Y-94609217D01*
X268696862Y-91578758D02*
X268696860Y-91578754D01*
X253587882Y-96551794D02*
X255238647Y-103997911D01*
X268708753Y-91576120D02*
X268696862Y-91578758D01*
X270282586Y-91227211D02*
X268708753Y-91576120D01*
X271950715Y-92289927D02*
X270282586Y-91227211D01*
X273503837Y-99295608D02*
X271950715Y-92289927D01*
X273641754Y-99917716D02*
X273503837Y-99295608D01*
X275786300Y-101283941D02*
X273641754Y-99917716D01*
X288844894Y-98379121D02*
X288837624Y-98390531D01*
X288837624Y-98390531D02*
X275786300Y-101283941D01*
X290627275Y-97983975D02*
X288844894Y-98379121D01*
X296705586Y-112095989D02*
X295654472Y-111426358D01*
X295654472Y-111426358D02*
X293907671Y-103547038D01*
X298624383Y-113318396D02*
X296705586Y-112095989D01*
X293907671Y-103547038D02*
X293011046Y-99502604D01*
X299962666Y-119355010D02*
X298624383Y-113318396D01*
X293011046Y-99502604D02*
X290627275Y-97983975D01*
%TO.N,P21*%
X254512860Y-94262347D02*
X253108205Y-96467211D01*
X254929929Y-94169884D02*
X254512860Y-94262347D01*
X253670946Y-99005582D02*
X254758970Y-103913331D01*
X268793334Y-91096444D02*
X254929929Y-94169884D01*
X217812944Y-113665598D02*
X217799552Y-113686620D01*
X272346502Y-91996105D02*
X270381610Y-90744332D01*
X273299093Y-96292973D02*
X272346502Y-91996105D01*
X274040746Y-99638343D02*
X273299093Y-96292973D01*
X270381610Y-90744332D02*
X268793334Y-91096444D01*
X275870876Y-100804264D02*
X274040746Y-99638343D01*
X285420823Y-98687092D02*
X275870876Y-100804264D01*
X253600556Y-105731676D02*
X217812944Y-113665598D01*
X285428090Y-98675684D02*
X285420823Y-98687092D01*
X290725140Y-97501355D02*
X285428090Y-98675684D01*
X254758970Y-103913331D02*
X253600556Y-105731676D01*
X293407091Y-99209948D02*
X290725140Y-97501355D01*
X295252396Y-107533636D02*
X293407091Y-99209948D01*
X253108205Y-96467211D02*
X253670946Y-99005582D01*
X296053456Y-111146975D02*
X295252396Y-107533636D01*
X306026507Y-110497592D02*
X297871867Y-112305433D01*
X309763575Y-109669103D02*
X306026507Y-110497592D01*
X297871867Y-112305433D02*
X296053456Y-111146975D01*
X318512292Y-115242650D02*
X309763575Y-109669103D01*
%TO.N,P15*%
X219627093Y-115286622D02*
X219627094Y-115286619D01*
X219627093Y-135853209D02*
X219627093Y-115286622D01*
X216500297Y-138979997D02*
X219627093Y-135853209D01*
%TO.N,P18*%
X219177085Y-114886628D02*
X219177092Y-114886620D01*
X219177086Y-133763206D02*
X219177085Y-114886628D01*
X216500306Y-136439996D02*
X219177086Y-133763206D01*
%TO.N,P19*%
X218727092Y-114486621D02*
X218727092Y-131673196D01*
X218727092Y-131673196D02*
X216500296Y-133900004D01*
X218727094Y-114486620D02*
X218727092Y-114486621D01*
%TO.N,P20*%
X218277090Y-129583206D02*
X216500298Y-131360004D01*
X218277090Y-114086623D02*
X218277090Y-129583206D01*
X218277092Y-114086621D02*
X218277090Y-114086623D01*
%TO.N,P21*%
X217811038Y-113698110D02*
X217799552Y-113686620D01*
X217811037Y-127509252D02*
X217811038Y-113698110D01*
X216500303Y-128820000D02*
X217811037Y-127509252D01*
%TO.N,P14*%
X222290989Y-120185933D02*
X220077094Y-123661055D01*
X222301139Y-120183684D02*
X222290989Y-120185933D01*
X220077094Y-123661055D02*
X220077089Y-137943204D01*
%TO.N,P3*%
X199313966Y-114003719D02*
X199308371Y-113998124D01*
X199313967Y-129413653D02*
X199313966Y-114003719D01*
X201260300Y-131359999D02*
X199313967Y-129413653D01*
%TO.N,P6*%
X197963965Y-135683648D02*
X197963965Y-115095245D01*
X201260297Y-138979995D02*
X197963965Y-135683648D01*
%TO.N,P5*%
X198413958Y-114749227D02*
X198413965Y-114749219D01*
X198413958Y-133593667D02*
X198413958Y-114749227D01*
X201260291Y-136439996D02*
X198413958Y-133593667D01*
%TO.N,P2*%
X199763962Y-113662888D02*
X199763962Y-127323667D01*
X199732250Y-113631172D02*
X199763962Y-113662888D01*
X164702956Y-96239152D02*
X163001640Y-103913282D01*
X163485693Y-94328430D02*
X164702956Y-96239152D01*
X163001640Y-103913282D02*
X164169979Y-105747207D01*
X148898819Y-91094601D02*
X163485693Y-94328430D01*
X147141487Y-90705008D02*
X148898819Y-91094601D01*
X145471660Y-91768805D02*
X147141487Y-90705008D01*
X143728139Y-99633307D02*
X144129734Y-97821842D01*
X141885896Y-100806944D02*
X143728139Y-99633307D01*
X144129734Y-97821842D02*
X145471660Y-91768805D01*
X129335176Y-98024519D02*
X141885896Y-100806944D01*
X126789980Y-97460261D02*
X129335176Y-98024519D01*
X121981900Y-109907662D02*
X124404506Y-98979977D01*
X121987210Y-109916005D02*
X121981900Y-109907662D01*
X121715486Y-111141684D02*
X121987210Y-109916005D01*
X164169979Y-105747207D02*
X199732250Y-113631172D01*
X124404506Y-98979977D02*
X126789980Y-97460261D01*
X94147382Y-106612044D02*
X95606967Y-106935625D01*
X85414191Y-112175699D02*
X94147382Y-106612044D01*
X119873234Y-112315330D02*
X121715486Y-111141684D01*
X95606967Y-106935625D02*
X119873234Y-112315330D01*
%TO.N,P4*%
X142055056Y-101766297D02*
X133636217Y-99899888D01*
X144526121Y-100192058D02*
X142055056Y-101766297D01*
X145657718Y-95087748D02*
X144526121Y-100192058D01*
X146909417Y-91919976D02*
X146269641Y-92327560D01*
X147310647Y-91664363D02*
X146909417Y-91919976D01*
X162926942Y-95126412D02*
X153194987Y-92968885D01*
X153194987Y-92968885D02*
X147310647Y-91664363D01*
X163356926Y-95801354D02*
X162926942Y-95126412D01*
X163743601Y-96408312D02*
X163356926Y-95801354D01*
X133636217Y-99899888D02*
X125976481Y-104779673D01*
X162915668Y-100142881D02*
X163743601Y-96408312D01*
X169363773Y-107820497D02*
X163611227Y-106545186D01*
X198858831Y-114359390D02*
X169363773Y-107820497D01*
X146269641Y-92327560D02*
X145657718Y-95087748D01*
X163611227Y-106545186D02*
X162848416Y-105347810D01*
X198858829Y-114359392D02*
X198858831Y-114359390D01*
X162848416Y-105347810D02*
X162042286Y-104082444D01*
X198863957Y-114364527D02*
X198858829Y-114359392D01*
X198863957Y-131503658D02*
X198863957Y-114364527D01*
X162042286Y-104082444D02*
X162915668Y-100142881D01*
X198863962Y-131503661D02*
X198863957Y-131503658D01*
%TO.N,P7*%
X197511081Y-115478009D02*
X197511082Y-137770774D01*
X197505249Y-115472177D02*
X197511081Y-115478009D01*
X197482930Y-115437145D02*
X197505249Y-115472177D01*
X187674892Y-113262754D02*
X197482930Y-115437145D01*
X181625354Y-117116728D02*
X187674892Y-113262754D01*
X197511082Y-137770774D02*
X197511078Y-137770777D01*
%TO.N,P6*%
X197963961Y-115095242D02*
X197948050Y-115079331D01*
X162940808Y-113612950D02*
X170270563Y-108943380D01*
X162584692Y-115219279D02*
X162940808Y-113612950D01*
X163075727Y-113004373D02*
X162584692Y-115219279D01*
%TO.N,P5*%
X198413965Y-114749219D02*
X198378600Y-114713857D01*
X163331851Y-106944175D02*
X198378600Y-114713857D01*
X161562613Y-104167028D02*
X163331851Y-106944175D01*
X154029934Y-93614918D02*
X162616474Y-95518508D01*
X146906939Y-98152763D02*
X154029934Y-93614918D01*
X162616474Y-95518508D02*
X163257031Y-96523983D01*
X163257031Y-96523983D02*
X161562613Y-104167028D01*
%TO.N,P3*%
X163890603Y-106146196D02*
X199308371Y-113998124D01*
X162521966Y-103997867D02*
X163890603Y-106146196D01*
X164223278Y-96323734D02*
X162705686Y-103169165D01*
X163206313Y-94727421D02*
X163888426Y-95798118D01*
X145870649Y-92048184D02*
X147226068Y-91184684D01*
X144352625Y-98895534D02*
X145870649Y-92048184D01*
X144127130Y-99912686D02*
X144352625Y-98895534D01*
X156026016Y-93135580D02*
X163206313Y-94727421D01*
X141970474Y-101286622D02*
X144127130Y-99912686D01*
X126894667Y-97944396D02*
X127285187Y-98030974D01*
X162705686Y-103169165D02*
X162521966Y-103997867D01*
X122339972Y-110403918D02*
X124807380Y-99274144D01*
X147226068Y-91184684D02*
X156026016Y-93135580D01*
X119957812Y-112795006D02*
X122114473Y-111421058D01*
X122114473Y-111421058D02*
X122339972Y-110403918D01*
X113034080Y-111260054D02*
X119957812Y-112795006D01*
X112160278Y-111066334D02*
X113034080Y-111260054D01*
X124807380Y-99274144D02*
X126894667Y-97944396D01*
X127285187Y-98030974D02*
X141970474Y-101286622D01*
X103963819Y-116288050D02*
X112160278Y-111066334D01*
X163888426Y-95798118D02*
X164223278Y-96323734D01*
%TO.N,P8*%
X218195758Y-148546368D02*
X220395754Y-146346368D01*
X214395756Y-148546368D02*
X218195758Y-148546368D01*
X209909386Y-144059993D02*
X214395756Y-148546368D01*
X201260300Y-144059994D02*
X209909386Y-144059993D01*
X220395754Y-146346368D02*
X220395758Y-143946365D01*
%TO.N,GND*%
X203800299Y-121200003D02*
X201260296Y-123739994D01*
X216500303Y-121199998D02*
X203800299Y-121200003D01*
X201260294Y-126279998D02*
X201260296Y-123739994D01*
%TO.N,P10*%
X251737589Y-185928424D02*
X249628789Y-186395938D01*
%TO.N,P16*%
X338305582Y-160591093D02*
X336196791Y-161058595D01*
X319755961Y-164703436D02*
X317647170Y-165170937D01*
X297743304Y-153195067D02*
X295634506Y-153662571D01*
X276812837Y-146568159D02*
X274704047Y-147035665D01*
X260644051Y-161419758D02*
X258535249Y-161887269D01*
X239985628Y-165999621D02*
X242094420Y-165532123D01*
%TO.N,P7*%
X197511078Y-137770777D02*
X201260294Y-141519996D01*
%TO.N,ring_bottom*%
X132417503Y-144544336D02*
X130922120Y-142197044D01*
X130012432Y-155392946D02*
X132417503Y-144544336D01*
%TO.N,ring_home*%
X136529864Y-125994725D02*
X135034469Y-123647426D01*
X134124776Y-136843322D02*
X136529864Y-125994725D01*
%TO.N,middle_top*%
X161572676Y-100818200D02*
X160077286Y-98470890D01*
X159167595Y-111666800D02*
X161572676Y-100818200D01*
%TO.N,P3*%
X103963823Y-116288055D02*
X103355344Y-119032735D01*
X103355344Y-119032735D02*
X95739118Y-153387314D01*
%TO.N,P4*%
X201260300Y-133899997D02*
X198863962Y-131503661D01*
%TO.N,P14*%
X220077089Y-137943204D02*
X216500303Y-141520002D01*
%TO.N,P19*%
X286174707Y-144945864D02*
X277950002Y-107846615D01*
%TO.N,P21*%
X318512297Y-115242648D02*
X326736988Y-152341897D01*
%TO.N,P20*%
X299962667Y-119355002D02*
X308187370Y-156454255D01*
%TO.N,P18*%
X257019548Y-101219724D02*
X265244248Y-138318963D01*
%TO.N,P15*%
X250879083Y-161306169D02*
X240494214Y-177607136D01*
X249075454Y-153170583D02*
X250879083Y-161306169D01*
X240850752Y-116071340D02*
X249075465Y-153170582D01*
%TO.N,P14*%
X232315474Y-165355432D02*
X218278236Y-187389461D01*
X230525834Y-157282936D02*
X232315474Y-165355432D01*
X222301130Y-120183677D02*
X230525838Y-157282922D01*
%TO.N,mirror_home_thumb*%
X235295891Y-190999120D02*
X237211842Y-190001738D01*
%TO.N,mirror_near_thumb*%
X254959360Y-185214184D02*
X257068156Y-184746678D01*
%TO.N,mirror_outer_bottom*%
X341527367Y-159876849D02*
X343636160Y-159409330D01*
%TO.N,mirror_pinky_bottom*%
X322977738Y-163989184D02*
X325086541Y-163521680D01*
%TO.N,mirror_ring_bottom*%
X300965077Y-152480806D02*
X303073877Y-152013299D01*
%TO.N,mirror_middle_bottom*%
X280034622Y-145853918D02*
X282143412Y-145386394D01*
%TO.N,mirror_index_bottom*%
X263865831Y-160705518D02*
X265974631Y-160238011D01*
%TO.N,mirror_inner_bottom*%
X245316210Y-164817861D02*
X247425005Y-164350360D01*
%TO.N,P9*%
X237982080Y-146982493D02*
X235873276Y-147450000D01*
%TO.N,mirror_inner_home*%
X243312659Y-145800736D02*
X241203854Y-146268247D01*
%TO.N,P9*%
X256531703Y-142870132D02*
X254422910Y-143337648D01*
%TO.N,mirror_index_home*%
X261862287Y-141688379D02*
X259753488Y-142155884D01*
%TO.N,P9*%
X272700495Y-128018534D02*
X270591687Y-128486035D01*
%TO.N,mirror_middle_home*%
X278031070Y-126836765D02*
X275922274Y-127304284D01*
%TO.N,P9*%
X293630957Y-134645444D02*
X291522150Y-135112950D01*
%TO.N,mirror_ring_home*%
X298961531Y-133463672D02*
X296852731Y-133931187D01*
%TO.N,P9*%
X315643614Y-146153825D02*
X313534818Y-146621333D01*
%TO.N,mirror_pinky_home*%
X320974179Y-144972060D02*
X318865392Y-145439564D01*
%TO.N,P9*%
X334193239Y-142041466D02*
X332084439Y-142508972D01*
%TO.N,mirror_outer_home*%
X339523817Y-140859703D02*
X337415021Y-141327216D01*
%TO.N,mirror_outer_top*%
X333302665Y-122777586D02*
X335411454Y-122310087D01*
%TO.N,P8*%
X327972083Y-123959348D02*
X330080888Y-123491850D01*
%TO.N,mirror_pinky_top*%
X314753026Y-126889936D02*
X316861833Y-126422437D01*
%TO.N,P8*%
X309422453Y-128071706D02*
X311531252Y-127604199D01*
%TO.N,mirror_ring_top*%
X292740371Y-115381567D02*
X294849173Y-114914050D01*
%TO.N,P8*%
X287409792Y-116563321D02*
X289518591Y-116095819D01*
%TO.N,mirror_middle_top*%
X271809914Y-108754665D02*
X273918716Y-108287155D01*
%TO.N,P8*%
X266479344Y-109936417D02*
X268588136Y-109468913D01*
%TO.N,mirror_index_top*%
X255641124Y-123606272D02*
X257749925Y-123138763D01*
%TO.N,P8*%
X250310551Y-124788030D02*
X252419347Y-124320514D01*
%TO.N,mirror_inner_top*%
X237091504Y-127718626D02*
X239200297Y-127251109D01*
%TO.N,P8*%
X231760924Y-128900384D02*
X233869725Y-128432874D01*
%TO.N,mirror_home_thumb*%
X232024701Y-180037341D02*
X229430530Y-179219401D01*
X237211842Y-190001738D02*
X232024701Y-180037341D01*
%TO.N,mirror_near_thumb*%
X254675283Y-173953096D02*
X252239813Y-172401537D01*
X257068162Y-184746670D02*
X254675283Y-173953096D01*
%TO.N,mirror_inner_home*%
X243312659Y-145800736D02*
X240919777Y-135007161D01*
X240919777Y-135007161D02*
X238484313Y-133455595D01*
%TO.N,mirror_index_home*%
X259469403Y-130894812D02*
X257033930Y-129343239D01*
X261862287Y-141688379D02*
X259469403Y-130894812D01*
%TO.N,mirror_inner_bottom*%
X245032133Y-153556787D02*
X242596666Y-152005222D01*
X247425010Y-164350350D02*
X245032133Y-153556787D01*
%TO.N,mirror_index_bottom*%
X265974637Y-160238008D02*
X263581757Y-149444436D01*
X263581757Y-149444436D02*
X261146287Y-147892873D01*
%TO.N,mirror_middle_bottom*%
X279750547Y-134592825D02*
X277315076Y-133041266D01*
X282143420Y-145386393D02*
X279750547Y-134592825D01*
%TO.N,mirror_middle_home*%
X275638195Y-116043208D02*
X273202722Y-114491639D01*
X278031070Y-126836765D02*
X275638195Y-116043208D01*
%TO.N,mirror_ring_home*%
X296568650Y-122670100D02*
X294133174Y-121118539D01*
X298961531Y-133463672D02*
X296568650Y-122670100D01*
%TO.N,mirror_ring_bottom*%
X303073884Y-152013303D02*
X300681008Y-141219734D01*
X300681008Y-141219734D02*
X298245534Y-139668161D01*
%TO.N,mirror_pinky_bottom*%
X322693668Y-152728118D02*
X320258192Y-151176545D01*
X325086553Y-163521675D02*
X322693668Y-152728118D01*
%TO.N,mirror_outer_bottom*%
X343636165Y-159409331D02*
X341243285Y-148615767D01*
X341243285Y-148615767D02*
X338807807Y-147064185D01*
%TO.N,mirror_pinky_home*%
X318581303Y-134178486D02*
X316145844Y-132626922D01*
X320974179Y-144972060D02*
X318581303Y-134178486D01*
%TO.N,mirror_outer_home*%
X337130940Y-130066138D02*
X334695469Y-128514570D01*
X339523817Y-140859703D02*
X337130940Y-130066138D01*
%TO.N,mirror_outer_top*%
X333018581Y-111516512D02*
X330583117Y-109964953D01*
X335411460Y-122310080D02*
X333018581Y-111516512D01*
%TO.N,mirror_pinky_top*%
X314468961Y-115628868D02*
X312033490Y-114077298D01*
X316861830Y-126422434D02*
X314468961Y-115628868D01*
%TO.N,mirror_ring_top*%
X292456299Y-104120489D02*
X290020824Y-102568916D01*
X294849170Y-114914050D02*
X292456299Y-104120489D01*
%TO.N,mirror_middle_top*%
X271525840Y-97493570D02*
X269090367Y-95942005D01*
X273918716Y-108287138D02*
X271525840Y-97493570D01*
%TO.N,mirror_index_top*%
X255357051Y-112345200D02*
X252921582Y-110793630D01*
X257749928Y-123138759D02*
X255357051Y-112345200D01*
%TO.N,mirror_inner_top*%
X236807423Y-116457540D02*
X234371959Y-114905968D01*
X239200311Y-127251114D02*
X236807423Y-116457540D01*
%TO.N,outer_bottom*%
X91855220Y-151940385D02*
X89450142Y-162788986D01*
X87341349Y-162321474D02*
X89450145Y-162788979D01*
X90359826Y-149593073D02*
X91855220Y-151940385D01*
%TO.N,outer_home*%
X94472185Y-131043451D02*
X95967591Y-133390743D01*
X91453707Y-143771848D02*
X93562496Y-144239364D01*
X95967591Y-133390743D02*
X93562499Y-144239352D01*
%TO.N,outer_top*%
X98584537Y-112493835D02*
X100079926Y-114841133D01*
X100079926Y-114841133D02*
X97674852Y-125689733D01*
X95566056Y-125222223D02*
X97674857Y-125689736D01*
%TO.N,pinky_bottom*%
X108909449Y-153705432D02*
X110404850Y-156052727D01*
X105890976Y-166433821D02*
X107999767Y-166901328D01*
X110404850Y-156052727D02*
X107999772Y-166901342D01*
%TO.N,pinky_home*%
X114517212Y-137503108D02*
X112112123Y-148351710D01*
X110003326Y-147884200D02*
X112112128Y-148351710D01*
X113021807Y-135155814D02*
X114517212Y-137503108D01*
%TO.N,pinky_top*%
X118629549Y-118953483D02*
X116224482Y-129802097D01*
X114115672Y-129334577D02*
X116224486Y-129802088D01*
X117134158Y-116606185D02*
X118629549Y-118953483D01*
%TO.N,P4*%
X117751780Y-141878916D02*
X125976473Y-104779672D01*
%TO.N,ring_bottom*%
X127903631Y-154925450D02*
X130012436Y-155392962D01*
%TO.N,ring_home*%
X132015983Y-136375834D02*
X134124788Y-136843325D01*
%TO.N,ring_top*%
X140642221Y-107445086D02*
X138237141Y-118293698D01*
X139146820Y-105097799D02*
X140642221Y-107445086D01*
X136128337Y-117826194D02*
X138237142Y-118293702D01*
%TO.N,P5*%
X138682234Y-135252022D02*
X146906939Y-98152766D01*
%TO.N,middle_bottom*%
X151852575Y-135570158D02*
X153347971Y-137917445D01*
X148834098Y-148298544D02*
X150942883Y-148766052D01*
X153347971Y-137917445D02*
X150942883Y-148766052D01*
%TO.N,middle_home*%
X155964928Y-117020521D02*
X157460329Y-119367830D01*
X152946443Y-129748917D02*
X155055241Y-130216422D01*
X157460329Y-119367830D02*
X155055246Y-130216432D01*
%TO.N,middle_top*%
X157058792Y-111199285D02*
X159167600Y-111666806D01*
%TO.N,index_bottom*%
X165002876Y-163150157D02*
X167111682Y-163617649D01*
X169516756Y-152769048D02*
X167111682Y-163617654D01*
X168021359Y-150421747D02*
X169516756Y-152769048D01*
%TO.N,index_home*%
X169115231Y-144600536D02*
X171224035Y-145068028D01*
X173629113Y-134219432D02*
X171224046Y-145068038D01*
X172133713Y-131872123D02*
X173629113Y-134219432D01*
%TO.N,index_top*%
X177741473Y-115669805D02*
X175336387Y-126518416D01*
X173227579Y-126050901D02*
X175336387Y-126518404D01*
X176246061Y-113322508D02*
X177741473Y-115669805D01*
%TO.N,P7*%
X184765992Y-180612756D02*
X171993378Y-160563766D01*
X186054682Y-180898449D02*
X184765992Y-180612756D01*
X171993378Y-160563766D02*
X173400643Y-154215976D01*
X173400643Y-154215976D02*
X181625353Y-117116729D01*
%TO.N,inner_bottom*%
X188066389Y-156881412D02*
X185661307Y-167730003D01*
X183552500Y-167262498D02*
X185661307Y-167730009D01*
X186570989Y-154534112D02*
X188066389Y-156881412D01*
%TO.N,inner_home*%
X190683340Y-135984487D02*
X192178739Y-138331775D01*
X192178739Y-138331775D02*
X189773666Y-149180384D01*
X187664850Y-148712879D02*
X189773654Y-149180389D01*
%TO.N,inner_top*%
X194795692Y-117434855D02*
X196291088Y-119782156D01*
X196291088Y-119782156D02*
X193886012Y-130630756D01*
X191777206Y-130163254D02*
X193886000Y-130630750D01*
%TO.N,near_thumb*%
X176927826Y-174930412D02*
X178423223Y-177277729D01*
X178423223Y-177277729D02*
X176018142Y-188126322D01*
X173909352Y-187658819D02*
X176018142Y-188126322D01*
%TO.N,home_thumb*%
X199530836Y-187268829D02*
X194399878Y-197125284D01*
X192483936Y-196127912D02*
X194399877Y-197125284D01*
X198693902Y-184614475D02*
X199530836Y-187268829D01*
%TO.N,P16*%
X159672303Y-161968379D02*
X161781103Y-162435898D01*
X124681857Y-154211190D02*
X122573062Y-153743683D01*
X178221935Y-166080746D02*
X180330724Y-166548241D01*
X143503509Y-147116784D02*
X145612314Y-147584278D01*
X84119581Y-161607227D02*
X82010774Y-161139712D01*
X102669194Y-165719569D02*
X100560392Y-165252066D01*
%TO.N,P9*%
X106781554Y-147169949D02*
X104672753Y-146702433D01*
X182334281Y-147531123D02*
X184443082Y-147998626D01*
X147615873Y-128567160D02*
X149724670Y-129034661D01*
X163784661Y-143418772D02*
X165893455Y-143886263D01*
X128794206Y-135661574D02*
X126685417Y-135194050D01*
X88231930Y-143057592D02*
X86123129Y-142590092D01*
%TO.N,P8*%
X130797773Y-116644430D02*
X132906555Y-117111947D01*
X151728215Y-110017529D02*
X153837011Y-110485044D01*
X186446636Y-128981496D02*
X188555440Y-129449008D01*
X92344286Y-124507971D02*
X90235485Y-124040462D01*
X167897003Y-124869135D02*
X170005805Y-125336656D01*
X110893902Y-128620314D02*
X108785116Y-128152816D01*
%TO.N,P10*%
X168578777Y-186477049D02*
X170687572Y-186944558D01*
X187640856Y-193606770D02*
X189556797Y-194604143D01*
X230452817Y-193520263D02*
X232368763Y-192522887D01*
%TO.N,P2*%
X199763962Y-127323667D02*
X201260294Y-128820003D01*
X77189490Y-149274956D02*
X85414197Y-112175704D01*
%TO.N,P9*%
X210000000Y-146600000D02*
X201260299Y-146599996D01*
X220396954Y-148796945D02*
X218996952Y-150196945D01*
X213596951Y-150196947D02*
X210000000Y-146600000D01*
X218996952Y-150196945D02*
X213596951Y-150196947D01*
%TO.N,P6*%
X197963965Y-115095245D02*
X197953423Y-115084702D01*
X170270563Y-108943380D02*
X197948050Y-115079331D01*
%TD*%
M02*
