%TF.GenerationSoftware,KiCad,Pcbnew,8.0.7*%
%TF.CreationDate,2025-03-02T16:24:29+01:00*%
%TF.ProjectId,pcb-adjusted,7063622d-6164-46a7-9573-7465642e6b69,v1.0.0*%
%TF.SameCoordinates,Original*%
%TF.FileFunction,Soldermask,Bot*%
%TF.FilePolarity,Negative*%
%FSLAX46Y46*%
G04 Gerber Fmt 4.6, Leading zero omitted, Abs format (unit mm)*
G04 Created by KiCad (PCBNEW 8.0.7) date 2025-03-02 16:24:29*
%MOMM*%
%LPD*%
G01*
G04 APERTURE LIST*
G04 Aperture macros list*
%AMRoundRect*
0 Rectangle with rounded corners*
0 $1 Rounding radius*
0 $2 $3 $4 $5 $6 $7 $8 $9 X,Y pos of 4 corners*
0 Add a 4 corners polygon primitive as box body*
4,1,4,$2,$3,$4,$5,$6,$7,$8,$9,$2,$3,0*
0 Add four circle primitives for the rounded corners*
1,1,$1+$1,$2,$3*
1,1,$1+$1,$4,$5*
1,1,$1+$1,$6,$7*
1,1,$1+$1,$8,$9*
0 Add four rect primitives between the rounded corners*
20,1,$1+$1,$2,$3,$4,$5,0*
20,1,$1+$1,$4,$5,$6,$7,0*
20,1,$1+$1,$6,$7,$8,$9,0*
20,1,$1+$1,$8,$9,$2,$3,0*%
G04 Aperture macros list end*
%ADD10RoundRect,0.050000X-0.675512X-1.060342X1.060342X-0.675512X0.675512X1.060342X-1.060342X0.675512X0*%
%ADD11RoundRect,0.050000X-0.309469X-0.683175X0.569197X-0.488380X0.309469X0.683175X-0.569197X0.488380X0*%
%ADD12C,2.005000*%
%ADD13C,1.801800*%
%ADD14C,3.100000*%
%ADD15C,4.087800*%
%ADD16RoundRect,0.050000X-0.974228X-1.496331X1.515327X-0.944410X0.974228X1.496331X-1.515327X0.944410X0*%
%ADD17RoundRect,0.050000X-1.515327X-0.944410X0.974228X-1.496331X1.515327X0.944410X-0.974228X1.496331X0*%
%ADD18RoundRect,0.050000X-1.060342X-0.675512X0.675512X-1.060342X1.060342X0.675512X-0.675512X1.060342X0*%
%ADD19RoundRect,0.050000X-0.569197X-0.488380X0.309469X-0.683175X0.569197X0.488380X-0.309469X0.683175X0*%
%ADD20RoundRect,0.050000X-0.553753X-1.697493X1.708125X-0.520034X0.553753X1.697493X-1.708125X0.520034X0*%
%ADD21RoundRect,0.050000X-1.199047X-0.378058X0.378058X-1.199047X1.199047X0.378058X-0.378058X1.199047X0*%
%ADD22RoundRect,0.050000X-0.676204X-0.324420X0.122106X-0.739993X0.676204X0.324420X-0.122106X0.739993X0*%
%ADD23RoundRect,0.050000X-1.708125X-0.520034X0.553753X-1.697493X1.708125X0.520034X-0.553753X1.697493X0*%
%ADD24RoundRect,0.050000X-0.378058X-1.199047X1.199047X-0.378058X0.378058X1.199047X-1.199047X0.378058X0*%
%ADD25RoundRect,0.050000X-0.122106X-0.739993X0.676204X-0.324420X0.122106X0.739993X-0.676204X0.324420X0*%
%ADD26RoundRect,0.050000X-0.876300X0.876300X-0.876300X-0.876300X0.876300X-0.876300X0.876300X0.876300X0*%
%ADD27C,1.852600*%
G04 APERTURE END LIST*
D10*
%TO.C,D22*%
X332084436Y-142508981D03*
D11*
X334193235Y-142041466D03*
X337415011Y-141327220D03*
D12*
X339523810Y-140859705D03*
%TD*%
D10*
%TO.C,D23*%
X327972079Y-123959353D03*
D11*
X330080878Y-123491838D03*
X333302654Y-122777592D03*
D12*
X335411453Y-122310077D03*
%TD*%
D13*
%TO.C,S38*%
X224808365Y-122229512D03*
D14*
X225498508Y-119474842D03*
D15*
X229767952Y-121129999D03*
D14*
X231148232Y-115620657D03*
D13*
X234727539Y-120030486D03*
D16*
X222301137Y-120183682D03*
X234371958Y-114905975D03*
%TD*%
D13*
%TO.C,S9*%
X127384200Y-107693426D03*
D14*
X129173852Y-105488512D03*
D15*
X132343783Y-108792939D03*
D14*
X135923090Y-104383112D03*
D13*
X137303366Y-109892452D03*
D17*
X125976481Y-104779672D03*
X139146818Y-105097798D03*
%TD*%
D13*
%TO.C,S2*%
X82709568Y-133639090D03*
D14*
X84499220Y-131434176D03*
D15*
X87669151Y-134738603D03*
D14*
X91248458Y-130328776D03*
D13*
X92628734Y-135838116D03*
D17*
X81301849Y-130725336D03*
X94472186Y-131043462D03*
%TD*%
D10*
%TO.C,D28*%
X291522163Y-135112955D03*
D11*
X293630962Y-134645440D03*
X296852738Y-133931194D03*
D12*
X298961537Y-133463679D03*
%TD*%
D13*
%TO.C,S18*%
X183033071Y-120030482D03*
D14*
X184822723Y-117825568D03*
D15*
X187992654Y-121129995D03*
D14*
X191571961Y-116720168D03*
D13*
X192952237Y-122229508D03*
D17*
X181625352Y-117116728D03*
X194795689Y-117434854D03*
%TD*%
D18*
%TO.C,D10*%
X143503515Y-147116784D03*
D19*
X145612317Y-147584290D03*
X148834091Y-148298544D03*
D12*
X150942893Y-148766050D03*
%TD*%
D13*
%TO.C,S30*%
X267751478Y-140364797D03*
D14*
X268441621Y-137610127D03*
D15*
X272711065Y-139265284D03*
D14*
X274091345Y-133755942D03*
D13*
X277670652Y-138165771D03*
D16*
X265244250Y-138318967D03*
X277315071Y-133041260D03*
%TD*%
D13*
%TO.C,S7*%
X119159497Y-144792682D03*
D14*
X120949149Y-142587768D03*
D15*
X124119080Y-145892195D03*
D14*
X127698387Y-141482368D03*
D13*
X129078663Y-146991708D03*
D17*
X117751778Y-141878928D03*
X130922115Y-142197054D03*
%TD*%
D13*
%TO.C,S6*%
X105371543Y-119201803D03*
D14*
X107161195Y-116996889D03*
D15*
X110331126Y-120301316D03*
D14*
X113910433Y-115891489D03*
D13*
X115290709Y-121400829D03*
D17*
X103963824Y-116288049D03*
X117134161Y-116606175D03*
%TD*%
D18*
%TO.C,D3*%
X90235479Y-124040471D03*
D19*
X92344281Y-124507977D03*
X95566055Y-125222231D03*
D12*
X97674857Y-125689737D03*
%TD*%
D13*
%TO.C,S25*%
X306582237Y-139950463D03*
D14*
X307272380Y-137195793D03*
D15*
X311541824Y-138850950D03*
D14*
X312922104Y-133341608D03*
D13*
X316501411Y-137751437D03*
D16*
X304075009Y-137904633D03*
X316145830Y-132626926D03*
%TD*%
D13*
%TO.C,S34*%
X247470336Y-136666774D03*
D14*
X248160479Y-133912104D03*
D15*
X252429923Y-135567261D03*
D14*
X253810203Y-130057919D03*
D13*
X257389510Y-134467748D03*
D16*
X244963108Y-134620944D03*
X257033929Y-129343237D03*
%TD*%
D10*
%TO.C,D24*%
X317647160Y-165170952D03*
D11*
X319755959Y-164703437D03*
X322977735Y-163989191D03*
D12*
X325086534Y-163521676D03*
%TD*%
D18*
%TO.C,D1*%
X82010778Y-161139712D03*
D19*
X84119580Y-161607218D03*
X87341354Y-162321472D03*
D12*
X89450156Y-162788978D03*
%TD*%
D13*
%TO.C,S19*%
X165165220Y-177526054D03*
D14*
X166954872Y-175321140D03*
D15*
X170124803Y-178625567D03*
D14*
X173704110Y-174215740D03*
D13*
X175084386Y-179725080D03*
D17*
X163757501Y-174612300D03*
X176927838Y-174930426D03*
%TD*%
D18*
%TO.C,D13*%
X159672304Y-161968394D03*
D19*
X161781106Y-162435900D03*
X165002880Y-163150154D03*
D12*
X167111682Y-163617660D03*
%TD*%
D13*
%TO.C,S10*%
X140089950Y-138165768D03*
D14*
X141879602Y-135960854D03*
D15*
X145049533Y-139265281D03*
D14*
X148628840Y-134855454D03*
D13*
X150009116Y-140364794D03*
D17*
X138682231Y-135252014D03*
X151852568Y-135570140D03*
%TD*%
D18*
%TO.C,D17*%
X182334279Y-147531124D03*
D19*
X184443081Y-147998630D03*
X187664855Y-148712884D03*
D12*
X189773657Y-149180390D03*
%TD*%
D13*
%TO.C,S16*%
X174808364Y-157129733D03*
D14*
X176598016Y-154924819D03*
D15*
X179767947Y-158229246D03*
D14*
X183347254Y-153819419D03*
D13*
X184727530Y-159328759D03*
D17*
X173400645Y-154215979D03*
X186570982Y-154534105D03*
%TD*%
D13*
%TO.C,S40*%
X222088277Y-188768637D03*
D14*
X222041938Y-185929209D03*
D15*
X226594291Y-186422954D03*
D14*
X226501618Y-180744097D03*
D13*
X231100305Y-184077271D03*
D20*
X219136977Y-187441435D03*
X229430525Y-179219403D03*
%TD*%
D18*
%TO.C,D2*%
X86123124Y-142590099D03*
D19*
X88231926Y-143057605D03*
X91453700Y-143771859D03*
D12*
X93562502Y-144239365D03*
%TD*%
D10*
%TO.C,D33*%
X258535249Y-161887276D03*
D11*
X260644048Y-161419761D03*
X263865824Y-160705515D03*
D12*
X265974623Y-160238000D03*
%TD*%
D13*
%TO.C,S13*%
X156258739Y-153017377D03*
D14*
X158048391Y-150812463D03*
D15*
X161218322Y-154116890D03*
D14*
X164797629Y-149707063D03*
D13*
X166177905Y-155216403D03*
D17*
X154851020Y-150103623D03*
X168021357Y-150421749D03*
%TD*%
D21*
%TO.C,D20*%
X187640858Y-193606774D03*
D22*
X189556802Y-194604151D03*
X192483934Y-196127919D03*
D12*
X194399878Y-197125296D03*
%TD*%
D13*
%TO.C,S35*%
X243357990Y-118117154D03*
D14*
X244048133Y-115362484D03*
D15*
X248317577Y-117017641D03*
D14*
X249697857Y-111508299D03*
D13*
X253277164Y-115918128D03*
D16*
X240850762Y-116071324D03*
X252921583Y-110793617D03*
%TD*%
D13*
%TO.C,S31*%
X263639127Y-121815178D03*
D14*
X264329270Y-119060508D03*
D15*
X268598714Y-120715665D03*
D14*
X269978994Y-115206323D03*
D13*
X273558301Y-119616152D03*
D16*
X261131899Y-119769348D03*
X273202720Y-114491641D03*
%TD*%
D13*
%TO.C,S29*%
X280457231Y-109892456D03*
D14*
X281147374Y-107137786D03*
D15*
X285416818Y-108792943D03*
D14*
X286797098Y-103283601D03*
D13*
X290376405Y-107693430D03*
D16*
X277950003Y-107846626D03*
X290020824Y-102568919D03*
%TD*%
D10*
%TO.C,D27*%
X295634508Y-153662575D03*
D11*
X297743307Y-153195060D03*
X300965083Y-152480814D03*
D12*
X303073882Y-152013299D03*
%TD*%
D18*
%TO.C,D11*%
X147615870Y-128567155D03*
D19*
X149724672Y-129034661D03*
X152946446Y-129748915D03*
D12*
X155055248Y-130216421D03*
%TD*%
D10*
%TO.C,D32*%
X266479345Y-109936423D03*
D11*
X268588144Y-109468908D03*
X271809920Y-108754662D03*
D12*
X273918719Y-108287147D03*
%TD*%
D10*
%TO.C,D38*%
X231760927Y-128900375D03*
D11*
X233869726Y-128432860D03*
X237091502Y-127718614D03*
D12*
X239200301Y-127251099D03*
%TD*%
D13*
%TO.C,S28*%
X284569591Y-128442070D03*
D14*
X285259734Y-125687400D03*
D15*
X289529178Y-127342557D03*
D14*
X290909458Y-121833215D03*
D13*
X294488765Y-126243044D03*
D16*
X282062363Y-126396240D03*
X294133184Y-121118533D03*
%TD*%
D18*
%TO.C,D12*%
X151728215Y-110017534D03*
D19*
X153837017Y-110485040D03*
X157058791Y-111199294D03*
D12*
X159167593Y-111666800D03*
%TD*%
D13*
%TO.C,S37*%
X228920717Y-140779140D03*
D14*
X229610860Y-138024470D03*
D15*
X233880304Y-139679627D03*
D14*
X235260584Y-134170285D03*
D13*
X238839891Y-138580114D03*
D16*
X226413489Y-138733310D03*
X238484310Y-133455603D03*
%TD*%
D10*
%TO.C,D26*%
X309422452Y-128071708D03*
D11*
X311531251Y-127604193D03*
X314753027Y-126889947D03*
D12*
X316861826Y-126422432D03*
%TD*%
D18*
%TO.C,D7*%
X122573052Y-153743683D03*
D19*
X124681854Y-154211189D03*
X127903628Y-154925443D03*
D12*
X130012430Y-155392949D03*
%TD*%
D18*
%TO.C,D8*%
X126685411Y-135194064D03*
D19*
X128794213Y-135661570D03*
X132015987Y-136375824D03*
D12*
X134124789Y-136843330D03*
%TD*%
D13*
%TO.C,S21*%
X329244221Y-154387731D03*
D14*
X329934364Y-151633061D03*
D15*
X334203808Y-153288218D03*
D14*
X335584088Y-147778876D03*
D13*
X339163395Y-152188705D03*
D16*
X326736993Y-152341901D03*
X338807814Y-147064194D03*
%TD*%
D13*
%TO.C,S15*%
X164483445Y-115918128D03*
D14*
X166273097Y-113713214D03*
D15*
X169443028Y-117017641D03*
D14*
X173022335Y-112607814D03*
D13*
X174402611Y-118117154D03*
D17*
X163075726Y-113004374D03*
X176246063Y-113322500D03*
%TD*%
D10*
%TO.C,D37*%
X235873284Y-147450012D03*
D11*
X237982083Y-146982497D03*
X241203859Y-146268251D03*
D12*
X243312658Y-145800736D03*
%TD*%
D10*
%TO.C,D34*%
X254422902Y-143337650D03*
D11*
X256531701Y-142870135D03*
X259753477Y-142155889D03*
D12*
X261862276Y-141688374D03*
%TD*%
D18*
%TO.C,D16*%
X178221930Y-166080742D03*
D19*
X180330732Y-166548248D03*
X183552506Y-167262502D03*
D12*
X185661308Y-167730008D03*
%TD*%
D18*
%TO.C,D18*%
X186446633Y-128981494D03*
D19*
X188555435Y-129449000D03*
X191777209Y-130163254D03*
D12*
X193886011Y-130630760D03*
%TD*%
D13*
%TO.C,S32*%
X259526772Y-103265548D03*
D14*
X260216915Y-100510878D03*
D15*
X264486359Y-102166035D03*
D14*
X265866639Y-96656693D03*
D13*
X269445946Y-101066522D03*
D16*
X257019544Y-101219718D03*
X269090365Y-95942011D03*
%TD*%
D13*
%TO.C,S20*%
X186660305Y-184077269D03*
D14*
X188959650Y-182410682D03*
D15*
X191166320Y-186422951D03*
D14*
X195765009Y-183089777D03*
D13*
X195672335Y-188768633D03*
D23*
X186054692Y-180898450D03*
X198693921Y-184614473D03*
%TD*%
D10*
%TO.C,D21*%
X336196778Y-161058606D03*
D11*
X338305577Y-160591091D03*
X341527353Y-159876845D03*
D12*
X343636152Y-159409330D03*
%TD*%
D10*
%TO.C,D39*%
X249628779Y-186395939D03*
D11*
X251737578Y-185928424D03*
X254959354Y-185214178D03*
D12*
X257068153Y-184746663D03*
%TD*%
D13*
%TO.C,S26*%
X302469894Y-121400840D03*
D14*
X303160037Y-118646170D03*
D15*
X307429481Y-120301327D03*
D14*
X308809761Y-114791985D03*
D13*
X312389068Y-119201814D03*
D16*
X299962666Y-119355010D03*
X312033487Y-114077303D03*
%TD*%
D13*
%TO.C,S22*%
X325131869Y-135838107D03*
D14*
X325822012Y-133083437D03*
D15*
X330091456Y-134738594D03*
D14*
X331471736Y-129229252D03*
D13*
X335051043Y-133639081D03*
D16*
X322624641Y-133792277D03*
X334695462Y-128514570D03*
%TD*%
D13*
%TO.C,S11*%
X144202308Y-119616151D03*
D14*
X145991960Y-117411237D03*
D15*
X149161891Y-120715664D03*
D14*
X152741198Y-116305837D03*
D13*
X154121474Y-121815177D03*
D17*
X142794589Y-116702397D03*
X155964926Y-117020523D03*
%TD*%
D13*
%TO.C,S1*%
X78597217Y-152188703D03*
D14*
X80386869Y-149983789D03*
D15*
X83556800Y-153288216D03*
D14*
X87136107Y-148878389D03*
D13*
X88516383Y-154387729D03*
D17*
X77189498Y-149274949D03*
X90359835Y-149593075D03*
%TD*%
D18*
%TO.C,D9*%
X130797762Y-116644433D03*
D19*
X132906564Y-117111939D03*
X136128338Y-117826193D03*
D12*
X138237140Y-118293699D03*
%TD*%
D13*
%TO.C,S27*%
X288681935Y-146991705D03*
D14*
X289372078Y-144237035D03*
D15*
X293641522Y-145892192D03*
D14*
X295021802Y-140382850D03*
D13*
X298601109Y-144792679D03*
D16*
X286174707Y-144945875D03*
X298245528Y-139668168D03*
%TD*%
D18*
%TO.C,D15*%
X167897010Y-124869139D03*
D19*
X170005812Y-125336645D03*
X173227586Y-126050899D03*
D12*
X175336388Y-126518405D03*
%TD*%
D13*
%TO.C,S12*%
X148314654Y-101066517D03*
D14*
X150104306Y-98861603D03*
D15*
X153274237Y-102166030D03*
D14*
X156853544Y-97756203D03*
D13*
X158233820Y-103265543D03*
D17*
X146906935Y-98152763D03*
X160077272Y-98470889D03*
%TD*%
D18*
%TO.C,D4*%
X100560393Y-165252068D03*
D19*
X102669195Y-165719574D03*
X105890969Y-166433828D03*
D12*
X107999771Y-166901334D03*
%TD*%
D10*
%TO.C,D35*%
X250310559Y-124788028D03*
D11*
X252419358Y-124320513D03*
X255641134Y-123606267D03*
D12*
X257749933Y-123138752D03*
%TD*%
D24*
%TO.C,D40*%
X230452824Y-193520260D03*
D25*
X232368768Y-192522883D03*
X235295900Y-190999115D03*
D12*
X237211844Y-190001738D03*
%TD*%
D13*
%TO.C,S33*%
X251582691Y-155216411D03*
D14*
X252272834Y-152461741D03*
D15*
X256542278Y-154116898D03*
D14*
X257922558Y-148607556D03*
D13*
X261501865Y-153017385D03*
D16*
X249075463Y-153170581D03*
X261146284Y-147892874D03*
%TD*%
D13*
%TO.C,S8*%
X123271845Y-126243040D03*
D14*
X125061497Y-124038126D03*
D15*
X128231428Y-127342553D03*
D14*
X131810735Y-122932726D03*
D13*
X133191011Y-128442066D03*
D17*
X121864126Y-123329286D03*
X135034463Y-123647412D03*
%TD*%
D18*
%TO.C,D6*%
X108785106Y-128152817D03*
D19*
X110893908Y-128620323D03*
X114115682Y-129334577D03*
D12*
X116224484Y-129802083D03*
%TD*%
D18*
%TO.C,D19*%
X168578765Y-186477048D03*
D19*
X170687567Y-186944554D03*
X173909341Y-187658808D03*
D12*
X176018143Y-188126314D03*
%TD*%
D13*
%TO.C,S4*%
X97146829Y-156301058D03*
D14*
X98936481Y-154096144D03*
D15*
X102106412Y-157400571D03*
D14*
X105685719Y-152990744D03*
D13*
X107065995Y-158500084D03*
D17*
X95739110Y-153387304D03*
X108909447Y-153705430D03*
%TD*%
D18*
%TO.C,D5*%
X104672742Y-146702438D03*
D19*
X106781544Y-147169944D03*
X110003318Y-147884198D03*
D12*
X112112120Y-148351704D03*
%TD*%
D13*
%TO.C,S17*%
X178920716Y-138580102D03*
D14*
X180710368Y-136375188D03*
D15*
X183880299Y-139679615D03*
D14*
X187459606Y-135269788D03*
D13*
X188839882Y-140779128D03*
D17*
X177512997Y-135666348D03*
X190683334Y-135984474D03*
%TD*%
D13*
%TO.C,S14*%
X160371094Y-134467761D03*
D14*
X162160746Y-132262847D03*
D15*
X165330677Y-135567274D03*
D14*
X168909984Y-131157447D03*
D13*
X170290260Y-136666787D03*
D17*
X158963375Y-131554007D03*
X172133712Y-131872133D03*
%TD*%
D13*
%TO.C,S3*%
X86821910Y-115089455D03*
D14*
X88611562Y-112884541D03*
D15*
X91781493Y-116188968D03*
D14*
X95360800Y-111779141D03*
D13*
X96741076Y-117288481D03*
D17*
X85414191Y-112175701D03*
X98584528Y-112493827D03*
%TD*%
D10*
%TO.C,D30*%
X274704043Y-147035667D03*
D11*
X276812842Y-146568152D03*
X280034618Y-145853906D03*
D12*
X282143417Y-145386391D03*
%TD*%
D13*
%TO.C,S5*%
X101259194Y-137751442D03*
D14*
X103048846Y-135546528D03*
D15*
X106218777Y-138850955D03*
D14*
X109798084Y-134441128D03*
D13*
X111178360Y-139950468D03*
D17*
X99851475Y-134837688D03*
X113021812Y-135155814D03*
%TD*%
D13*
%TO.C,S36*%
X233033056Y-159328755D03*
D14*
X233723199Y-156574085D03*
D15*
X237992643Y-158229242D03*
D14*
X239372923Y-152719900D03*
D13*
X242952230Y-157129729D03*
D16*
X230525828Y-157282925D03*
X242596649Y-152005218D03*
%TD*%
D13*
%TO.C,S39*%
X242676226Y-179725074D03*
D14*
X243366369Y-176970404D03*
D15*
X247635813Y-178625561D03*
D14*
X249016093Y-173116219D03*
D13*
X252595400Y-177526048D03*
D16*
X240168998Y-177679244D03*
X252239819Y-172401537D03*
%TD*%
D18*
%TO.C,D14*%
X163784657Y-143418765D03*
D19*
X165893459Y-143886271D03*
X169115233Y-144600525D03*
D12*
X171224035Y-145068031D03*
%TD*%
D10*
%TO.C,D25*%
X313534808Y-146621335D03*
D11*
X315643607Y-146153820D03*
X318865383Y-145439574D03*
D12*
X320974182Y-144972059D03*
%TD*%
D13*
%TO.C,S24*%
X310694597Y-158500075D03*
D14*
X311384740Y-155745405D03*
D15*
X315654184Y-157400562D03*
D14*
X317034464Y-151891220D03*
D13*
X320613771Y-156301049D03*
D16*
X308187369Y-156454245D03*
X320258190Y-151176538D03*
%TD*%
D10*
%TO.C,D31*%
X270591692Y-128486048D03*
D11*
X272700491Y-128018533D03*
X275922267Y-127304287D03*
D12*
X278031066Y-126836772D03*
%TD*%
D10*
%TO.C,D29*%
X287409797Y-116563326D03*
D11*
X289518596Y-116095811D03*
X292740372Y-115381565D03*
D12*
X294849171Y-114914050D03*
%TD*%
D13*
%TO.C,S23*%
X321019521Y-117288482D03*
D14*
X321709664Y-114533812D03*
D15*
X325979108Y-116188969D03*
D14*
X327359388Y-110679627D03*
D13*
X330938695Y-115089456D03*
D16*
X318512293Y-115242652D03*
X330583114Y-109964945D03*
%TD*%
D10*
%TO.C,D36*%
X239985624Y-165999623D03*
D11*
X242094423Y-165532108D03*
X245316199Y-164817862D03*
D12*
X247424998Y-164350347D03*
%TD*%
D26*
%TO.C,MCU1*%
X216500300Y-118659992D03*
D27*
X216500298Y-121199993D03*
X216500301Y-123739998D03*
X216500300Y-126279994D03*
X216500301Y-128819995D03*
X216500302Y-131359994D03*
X216500300Y-133899993D03*
X216500300Y-136439995D03*
X216500300Y-138979994D03*
X216500300Y-141519994D03*
X216500300Y-144059994D03*
X216500301Y-146599995D03*
X201260299Y-118659993D03*
X201260300Y-121199994D03*
X201260300Y-123739994D03*
X201260300Y-126279994D03*
X201260300Y-128819993D03*
X201260300Y-131359995D03*
X201260298Y-133899994D03*
X201260299Y-136439993D03*
X201260300Y-138979994D03*
X201260299Y-141519990D03*
X201260302Y-144059995D03*
X201260300Y-146599996D03*
%TD*%
M02*
